<?xml version="1.0" standalone="no"?>
<!DOCTYPE svg PUBLIC "-//W3C//DTD SVG 20010904//EN"
 "http://www.w3.org/TR/2001/REC-SVG-20010904/DTD/svg10.dtd">
<svg version="1.0" xmlns="http://www.w3.org/2000/svg"
 width="2000.000000pt" height="1932.000000pt" viewBox="0 0 2000.000000 1932.000000"
 preserveAspectRatio="xMidYMid meet">
<metadata>
Created by potrace 1.12, written by Peter Selinger 2001-2015
</metadata>
<g transform="translate(0.000000,1932.000000) scale(0.100000,-0.100000)"
fill="#000000" stroke="none">
<path d="M1678 18684 c-158 -24 -353 -102 -493 -197 -84 -58 -218 -188 -287
-281 -120 -160 -205 -378 -228 -581 -14 -125 -14 -15805 0 -15930 16 -135 54
-267 114 -391 177 -362 513 -610 906 -670 82 -12 1032 -14 6810 -14 7235 0
6782 -3 6960 48 240 70 472 232 631 441 69 91 163 286 194 401 40 156 45 242
45 893 l0 617 -6630 0 -6630 0 0 6640 0 6640 6630 0 6630 0 0 618 c0 353 -5
656 -10 707 -23 203 -108 421 -228 581 -70 94 -203 224 -292 284 -145 99 -326
169 -500 196 -139 20 -13488 19 -13622 -2z"/>
<path d="M13920 13277 l0 -1807 -3620 0 -3620 0 0 -1810 0 -1810 3620 0 3620
0 0 -1807 0 -1808 2712 2713 2713 2712 -2713 2712 -2712 2713 0 -1808z"/>
</g>
</svg>
