<?xml version="1.0" standalone="no"?>
<!DOCTYPE svg PUBLIC "-//W3C//DTD SVG 20010904//EN"
 "http://www.w3.org/TR/2001/REC-SVG-20010904/DTD/svg10.dtd">
<svg version="1.0" xmlns="http://www.w3.org/2000/svg"
 width="2000.000000pt" height="2142.000000pt" viewBox="0 0 2000.000000 2142.000000"
 preserveAspectRatio="xMidYMid meet">
<metadata>
Created by potrace 1.12, written by Peter Selinger 2001-2015
</metadata>
<g transform="translate(0.000000,2142.000000) scale(0.100000,-0.100000)"
fill="#000000" stroke="none">
<path d="M16992 21105 c-64 -14 -5368 -1407 -5526 -1451 -562 -156 -890 -769
-703 -1313 70 -202 2046 -5259 2080 -5325 125 -235 361 -423 632 -502 128 -37
338 -45 475 -16 192 40 362 127 498 256 100 95 163 180 223 301 120 242 139
512 54 770 -18 55 -295 773 -615 1595 -320 822 -585 1503 -588 1513 -6 23 103
-30 333 -161 548 -310 1040 -664 1485 -1068 168 -152 503 -491 636 -644 951
-1089 1550 -2336 1789 -3723 111 -648 134 -1373 65 -2053 -182 -1784 -980
-3452 -2265 -4739 -1263 -1265 -2888 -2060 -4630 -2264 -345 -41 -452 -46
-910 -46 -457 0 -560 5 -905 46 -1080 127 -2114 477 -3050 1032 -1925 1140
-3281 3029 -3730 5192 -112 541 -154 973 -154 1575 -1 481 16 720 80 1155 290
1969 1341 3753 2899 4918 557 417 1077 699 1785 970 422 162 693 577 667 1022
-26 450 -335 825 -776 942 -83 23 -116 26 -251 26 -194 0 -258 -16 -563 -137
-1048 -417 -1961 -987 -2784 -1740 -1995 -1822 -3123 -4409 -3123 -7156 0
-1532 339 -2985 1015 -4355 402 -813 887 -1532 1513 -2240 166 -187 649 -666
847 -839 1226 -1072 2627 -1808 4180 -2195 769 -191 1522 -281 2348 -282 863
0 1598 92 2422 301 1537 390 2934 1135 4160 2219 182 161 674 656 836 841 828
946 1440 1964 1869 3105 309 823 507 1695 585 2575 53 599 45 1318 -20 1920
-262 2406 -1454 4647 -3332 6262 -457 393 -872 694 -1426 1033 l-65 40 1061
279 c584 154 1143 301 1242 328 266 71 390 136 542 281 135 130 224 276 279
462 38 127 45 346 16 485 -54 261 -208 495 -424 641 -84 57 -228 123 -323 149
-105 28 -359 37 -453 15z"/>
</g>
</svg>
