<?xml version="1.0" standalone="no"?>
<!DOCTYPE svg PUBLIC "-//W3C//DTD SVG 20010904//EN"
 "http://www.w3.org/TR/2001/REC-SVG-20010904/DTD/svg10.dtd">
<svg version="1.0" xmlns="http://www.w3.org/2000/svg"
 width="2000.000000pt" height="2000.000000pt" viewBox="0 0 2000.000000 2000.000000"
 preserveAspectRatio="xMidYMid meet">
<metadata>
Created by potrace 1.12, written by Peter Selinger 2001-2015
</metadata>
<g transform="translate(0.000000,2000.000000) scale(0.100000,-0.100000)"
fill="#000000" stroke="none">
<path d="M16355 19876 c-87 -20 -176 -59 -242 -105 -32 -22 -1425 -1413 -3096
-3091 l-3039 -3050 -766 761 c-422 419 -1791 1782 -3042 3028 -2121 2114
-2280 2269 -2346 2304 -98 51 -180 70 -294 70 -116 0 -197 -20 -305 -76 -76
-39 -113 -74 -765 -718 -377 -373 -1035 -1025 -1462 -1451 l-777 -773 -41 -85
c-98 -204 -90 -417 22 -608 25 -43 482 -505 1893 -1911 1023 -1020 2393 -2387
3045 -3038 l1185 -1183 -3051 -3052 -3052 -3053 -41 -85 c-114 -234 -86 -488
76 -683 26 -32 686 -685 1466 -1451 1086 -1067 1432 -1401 1480 -1430 102 -61
183 -81 317 -80 137 1 237 29 341 95 48 30 823 799 3101 3077 l3037 3036 688
-684 c378 -376 1750 -1741 3048 -3034 1568 -1562 2380 -2365 2420 -2391 32
-21 98 -52 145 -69 76 -27 97 -30 200 -30 97 0 127 5 195 27 44 15 109 45 145
68 88 56 2888 2855 2945 2944 21 32 52 98 69 145 27 76 30 98 30 200 0 102 -3
124 -30 200 -17 47 -48 112 -69 145 -38 57 -650 669 -4561 4565 l-1571 1565
700 705 c385 388 1756 1765 3046 3060 1561 1566 2360 2375 2386 2415 21 32 52
98 69 145 25 72 29 100 30 185 0 115 -16 182 -72 290 -33 65 -138 173 -1495
1532 -1551 1552 -1506 1509 -1647 1554 -84 26 -234 34 -315 15z"/>
</g>
</svg>
