<?xml version="1.0" standalone="no"?>
<!DOCTYPE svg PUBLIC "-//W3C//DTD SVG 20010904//EN"
 "http://www.w3.org/TR/2001/REC-SVG-20010904/DTD/svg10.dtd">
<svg version="1.0" xmlns="http://www.w3.org/2000/svg"
 width="2000.000000pt" height="1600.000000pt" viewBox="0 0 2000.000000 1600.000000"
 preserveAspectRatio="xMidYMid meet">
<metadata>
Created by potrace 1.12, written by Peter Selinger 2001-2015
</metadata>
<g transform="translate(0.000000,1600.000000) scale(0.100000,-0.100000)"
fill="#000000" stroke="none">
<path d="M15913 14782 c-642 -669 -3062 -3190 -5377 -5601 l-4209 -4383 -1706
1706 -1706 1706 -1350 -1111 c-742 -611 -1398 -1150 -1457 -1199 l-108 -88
1392 -1278 c766 -704 2000 -1837 2743 -2519 742 -681 1540 -1414 1772 -1627
l423 -388 6827 6792 c3755 3736 6828 6798 6830 6804 3 9 -2573 2140 -2883
2386 -22 18 -30 9 -1191 -1200z"/>
</g>
</svg>
