<?xml version="1.0" standalone="no"?>
<!DOCTYPE svg PUBLIC "-//W3C//DTD SVG 20010904//EN"
 "http://www.w3.org/TR/2001/REC-SVG-20010904/DTD/svg10.dtd">
<svg version="1.0" xmlns="http://www.w3.org/2000/svg"
 width="2000.000000pt" height="1268.000000pt" viewBox="0 0 2000.000000 1268.000000"
 preserveAspectRatio="xMidYMid meet">
<metadata>
Created by potrace 1.12, written by Peter Selinger 2001-2015
</metadata>
<g transform="translate(0.000000,1268.000000) scale(0.100000,-0.100000)"
fill="#000000" stroke="none">
<path d="M2697 12522 c-20 -22 -22 -84 -5 -115 12 -22 149 -410 145 -412 -1
-1 -51 -11 -112 -23 -85 -16 -130 -31 -195 -65 -144 -76 -253 -146 -310 -202
-30 -29 -65 -58 -77 -64 -33 -17 -103 -13 -149 8 -44 20 -69 49 -258 298 -94
125 -112 144 -147 155 -36 10 -42 9 -61 -10 -28 -27 -28 -71 0 -172 27 -103
144 -371 185 -428 19 -26 73 -111 121 -189 68 -112 85 -147 80 -166 -3 -14
-41 -68 -85 -120 -82 -97 -130 -132 -218 -158 -25 -7 -61 -29 -82 -49 -42 -40
-71 -121 -95 -273 -20 -123 -57 -200 -141 -290 -76 -83 -341 -422 -395 -507
-20 -30 -61 -107 -93 -169 -40 -81 -74 -133 -114 -175 -32 -34 -137 -152 -234
-264 l-177 -202 0 -54 c0 -72 63 -335 96 -405 19 -39 60 -89 138 -166 96 -96
124 -117 206 -159 92 -47 97 -48 165 -43 53 3 89 13 145 40 66 31 90 37 200
47 120 10 130 9 260 -17 132 -27 138 -28 255 -16 66 7 158 21 205 32 47 11
105 23 130 26 25 4 103 28 175 52 199 68 221 65 471 -60 71 -36 168 -79 215
-95 107 -38 422 -109 543 -122 50 -6 134 -16 186 -22 52 -6 122 -19 156 -29
71 -22 180 -95 247 -167 79 -85 223 -316 319 -512 50 -102 138 -270 195 -373
114 -205 139 -258 185 -387 17 -47 67 -161 110 -255 44 -93 113 -248 153 -343
41 -95 85 -192 98 -215 59 -100 208 -244 345 -334 101 -67 191 -109 346 -162
66 -23 122 -43 124 -46 5 -5 -76 -80 -348 -322 -310 -274 -435 -410 -584 -631
-140 -209 -176 -280 -183 -361 -14 -154 91 -400 263 -611 29 -36 115 -121 191
-190 225 -203 442 -420 501 -500 127 -172 267 -337 457 -540 350 -373 580
-568 742 -629 57 -21 60 -25 92 -89 18 -37 53 -95 77 -128 50 -71 173 -188
225 -214 56 -29 213 -70 267 -70 55 0 112 17 112 32 0 6 -65 232 -145 502 -93
313 -153 498 -165 511 -15 16 -57 28 -166 50 -85 17 -156 37 -168 46 l-21 18
38 109 c42 126 45 163 17 210 -22 37 -108 82 -196 103 -82 20 -143 55 -304
178 -179 135 -252 216 -331 361 -29 52 -87 158 -129 235 -112 203 -150 325
-136 439 16 122 116 265 244 349 91 59 491 249 722 343 89 36 214 106 427 239
159 99 273 209 358 344 l59 93 74 -148 c41 -82 97 -206 123 -276 41 -105 64
-149 142 -260 181 -259 366 -536 507 -758 79 -124 155 -243 171 -266 47 -69
269 -452 335 -579 118 -227 223 -485 268 -660 23 -91 56 -300 56 -353 -1 -71
-29 -121 -147 -255 -59 -67 -121 -139 -138 -159 -20 -24 -49 -44 -87 -58 -100
-37 -200 -126 -249 -221 -10 -21 -28 -70 -40 -110 -11 -41 -23 -82 -26 -91 -5
-17 23 -18 500 -18 l506 0 35 46 c115 151 136 321 60 501 -36 87 -32 93 68 93
65 0 90 4 115 20 48 29 84 112 64 148 -5 9 -18 69 -30 132 -33 188 -251 978
-336 1223 -25 70 -56 174 -70 230 -15 56 -44 161 -65 234 -22 72 -55 205 -74
295 -74 352 -116 527 -151 628 -19 58 -52 168 -72 245 -47 183 -87 287 -179
462 -42 79 -75 146 -73 148 6 6 1025 29 1169 27 138 -2 310 -20 460 -47 443
-80 593 -99 898 -117 449 -26 788 -1 1337 98 212 38 551 109 620 129 15 5 44
-12 110 -61 77 -58 214 -145 323 -205 l29 -16 -39 -224 c-48 -276 -49 -286
-12 -347 56 -89 145 -114 240 -67 63 31 73 49 164 290 40 105 73 191 74 193 4
4 208 -37 214 -43 3 -3 -7 -89 -21 -193 -15 -103 -27 -205 -26 -227 0 -61 29
-124 73 -159 36 -30 42 -31 125 -30 95 2 139 17 166 57 8 13 33 122 55 243 23
120 43 228 47 238 5 17 13 18 105 13 56 -4 103 -8 105 -11 12 -12 15 -316 4
-449 -15 -184 -33 -297 -66 -412 -32 -112 -221 -497 -376 -765 -62 -107 -133
-233 -159 -280 -57 -106 -68 -122 -154 -240 -115 -157 -153 -196 -346 -353
-101 -83 -234 -194 -295 -247 -60 -52 -146 -125 -190 -162 -84 -71 -132 -123
-207 -225 -49 -66 -141 -240 -152 -285 -5 -22 -20 -34 -72 -58 -159 -72 -290
-190 -359 -323 -21 -39 -46 -84 -57 -99 -10 -14 -18 -31 -18 -37 0 -17 1021
-15 1042 2 8 6 82 134 163 282 131 242 172 305 194 305 4 0 37 -26 75 -57 l69
-57 43 24 c59 31 71 43 201 211 75 97 169 241 288 439 188 313 298 470 392
561 32 31 251 199 487 375 384 285 431 323 448 361 10 24 61 226 112 451 52
224 103 437 114 472 37 121 101 269 148 342 45 71 101 138 115 138 4 0 29 -39
55 -87 91 -163 203 -308 389 -502 257 -270 327 -363 435 -584 150 -303 214
-517 300 -1007 l52 -295 -6 -171 c-7 -201 -13 -223 -96 -349 -59 -91 -74 -131
-85 -238 -6 -52 -12 -64 -63 -121 -31 -35 -85 -88 -120 -117 -47 -41 -70 -71
-96 -124 -31 -62 -66 -195 -66 -246 0 -18 16 -19 513 -19 l513 0 59 102 c87
150 87 206 -4 386 -55 109 -63 228 -17 256 11 8 46 19 76 26 85 19 118 36 140
72 25 42 26 102 1 176 -11 31 -31 137 -46 235 -14 98 -51 299 -81 445 -30 147
-71 380 -90 517 -19 138 -46 310 -60 383 -25 138 -31 253 -15 295 15 40 49
238 71 417 11 91 33 244 48 340 47 304 32 473 -53 584 -46 61 -85 140 -130
266 -21 58 -43 116 -50 130 -15 29 -45 192 -75 397 -26 183 -30 582 -7 688 36
167 61 402 92 900 9 138 27 329 40 425 44 317 68 514 68 565 0 28 -9 124 -21
214 -12 91 -19 167 -17 170 3 2 5 0 5 -5 0 -5 13 -75 30 -155 41 -205 157
-911 172 -1054 8 -73 12 -217 11 -370 -2 -137 5 -414 14 -615 25 -551 18 -937
-24 -1245 -17 -132 -26 -477 -13 -540 4 -22 15 -69 23 -105 9 -36 21 -108 27
-160 6 -52 20 -131 30 -175 11 -44 26 -156 34 -249 12 -134 19 -172 33 -189
24 -27 91 -57 128 -57 17 0 36 -5 42 -11 13 -13 118 22 149 52 45 42 47 61 41
366 -4 207 -10 309 -22 363 -9 42 -18 151 -21 250 -6 156 -4 185 15 263 27
112 26 143 -1 194 -115 211 -139 270 -169 417 -14 71 -19 119 -15 161 4 33 11
170 16 305 6 135 17 292 26 350 12 84 17 311 26 1145 11 1039 7 1269 -23 1655
-46 586 -237 970 -684 1373 -241 217 -413 323 -698 431 -189 72 -400 142 -502
167 -174 42 -723 63 -1022 38 -70 -5 -225 -25 -343 -44 -365 -58 -879 -108
-1430 -140 -526 -31 -1077 -73 -1514 -116 -111 -10 -304 -28 -431 -39 -126
-11 -277 -25 -335 -30 -153 -14 -297 -12 -354 5 -27 8 -74 15 -105 15 -31 0
-110 7 -176 15 -66 8 -289 19 -495 25 -738 19 -1032 41 -1720 130 -742 96
-1189 125 -1775 118 -323 -5 -699 -31 -1280 -88 -274 -28 -717 -23 -1095 11
-221 20 -543 91 -740 162 -157 57 -429 178 -509 227 -86 53 -86 52 -41 144
l28 59 -24 36 c-31 47 -63 65 -152 85 -40 9 -117 35 -170 57 -105 44 -176 69
-263 93 -70 19 -80 29 -248 238 -106 132 -140 167 -164 172 -41 8 -42 8 -60
-12z"/>
</g>
</svg>
