<?xml version="1.0" standalone="no"?>
<!DOCTYPE svg PUBLIC "-//W3C//DTD SVG 20010904//EN"
 "http://www.w3.org/TR/2001/REC-SVG-20010904/DTD/svg10.dtd">
<svg version="1.0" xmlns="http://www.w3.org/2000/svg"
 width="2000.000000pt" height="1835.000000pt" viewBox="0 0 2000.000000 1835.000000"
 preserveAspectRatio="xMidYMid meet">
<metadata>
Created by potrace 1.12, written by Peter Selinger 2001-2015
</metadata>
<g transform="translate(0.000000,1835.000000) scale(0.100000,-0.100000)"
fill="#000000" stroke="none">
<path d="M1722 17883 c-6 -10 -51 -119 -102 -242 -88 -214 -92 -225 -74 -238
10 -7 25 -12 32 -11 8 2 34 53 59 113 24 61 69 168 99 240 51 120 54 130 38
142 -24 18 -42 16 -52 -4z"/>
<path d="M1786 17818 c-8 -18 -48 -115 -90 -216 -42 -100 -76 -189 -76 -196 0
-8 8 -16 18 -19 9 -2 24 -8 33 -11 18 -8 24 3 125 251 42 102 72 188 68 192
-5 4 -22 13 -37 19 -27 11 -29 10 -41 -20z"/>
<path d="M1884 17808 c-4 -13 -47 -119 -95 -236 -49 -117 -89 -218 -89 -225 0
-7 103 -54 228 -106 125 -52 270 -112 322 -133 52 -22 142 -59 200 -83 245
-101 411 -170 675 -280 154 -65 289 -119 301 -122 23 -5 23 -6 94 172 26 66
66 161 88 212 29 67 37 95 29 101 -7 6 -131 59 -277 120 -146 60 -463 192
-705 292 -242 100 -509 211 -594 246 -84 35 -157 64 -161 64 -5 0 -12 -10 -16
-22z"/>
<path d="M17605 17499 c-84 -12 -225 -54 -316 -93 -237 -103 -505 -394 -618
-672 -44 -108 -94 -290 -87 -317 17 -68 98 -112 155 -83 23 12 38 38 76 128
99 236 173 355 302 489 187 194 400 293 628 292 163 -1 294 -52 401 -158 100
-99 144 -215 144 -383 0 -219 -89 -414 -269 -592 -139 -137 -322 -246 -522
-310 -84 -27 -111 -40 -143 -72 -34 -34 -38 -42 -33 -74 13 -80 69 -103 189
-79 279 57 523 189 728 395 125 125 160 176 220 324 60 148 82 243 88 387 6
165 -11 246 -84 397 -48 99 -65 123 -137 195 -189 188 -441 266 -722 226z"/>
<path d="M3655 17079 c-3 -8 -47 -115 -99 -239 -52 -124 -91 -228 -87 -232 3
-3 51 -9 106 -13 l100 -7 24 58 c13 33 48 116 78 185 29 69 53 131 53 137 0
10 -128 108 -156 119 -7 3 -16 -1 -19 -8z"/>
<path d="M3766 16774 c-43 -102 -74 -190 -69 -194 15 -15 327 -141 338 -136 6
2 22 32 37 67 14 35 47 115 72 176 25 62 46 119 46 126 0 7 -33 27 -72 44
-100 43 -256 103 -266 103 -5 0 -43 -84 -86 -186z"/>
<path d="M13159 16841 c-134 -19 -302 -89 -428 -178 -103 -74 -239 -218 -290
-306 -66 -118 -120 -250 -153 -377 -38 -148 -48 -363 -25 -540 15 -107 18
-117 47 -142 44 -40 110 -39 151 1 l29 29 0 179 c0 264 33 430 121 607 104
210 279 372 469 437 79 26 223 36 301 20 237 -49 400 -268 425 -571 12 -140
-29 -327 -104 -475 -74 -148 -215 -327 -331 -421 -123 -99 -147 -195 -59 -240
57 -29 121 1 281 134 185 154 322 353 419 611 46 124 56 205 47 396 -18 363
-186 639 -470 769 -129 59 -298 85 -430 67z"/>
<path d="M6124 16164 c-87 -65 -162 -122 -165 -127 -6 -9 191 -289 212 -302 7
-5 220 144 312 217 l28 23 -102 140 c-55 77 -107 146 -113 153 -10 10 -43 -9
-172 -104z"/>
<path d="M6463 15922 c-101 -71 -238 -172 -260 -189 l-21 -18 38 -95 c21 -52
43 -94 49 -93 8 2 185 130 380 274 17 13 31 28 31 34 0 10 -149 125 -161 125
-2 0 -28 -17 -56 -38z"/>
<path d="M6578 15732 c-64 -48 -157 -116 -207 -152 -57 -41 -90 -71 -89 -81 4
-19 1100 -1518 1111 -1519 4 0 40 24 80 53 295 218 347 259 340 270 -12 20
-636 872 -687 939 -12 14 -111 150 -221 302 -110 151 -202 275 -205 275 -3 0
-58 -39 -122 -87z"/>
<path d="M5690 14955 c-218 -54 -265 -67 -272 -73 -4 -4 13 -86 38 -182 42
-161 46 -184 44 -286 -1 -67 3 -114 9 -118 10 -7 491 110 503 122 3 4 -14 41
-38 82 -25 41 -49 81 -53 89 -7 11 -43 5 -201 -33 -105 -26 -194 -45 -197 -43
-2 3 76 24 174 47 98 24 185 46 194 51 15 7 13 23 -18 151 -52 217 -52 218
-71 217 -9 0 -60 -11 -112 -24z"/>
<path d="M5995 14393 c-228 -54 -472 -117 -478 -122 -4 -5 51 -248 123 -542
260 -1056 318 -1290 321 -1294 2 -2 119 25 259 59 226 56 255 65 253 82 -2 20
-69 292 -288 1179 -69 281 -133 540 -141 578 -9 37 -19 66 -22 66 -4 -1 -16
-3 -27 -6z"/>
<path d="M7750 14219 c-262 -190 -320 -234 -320 -245 0 -6 9 -22 19 -35 24
-29 7 -39 236 131 l176 131 -21 29 c-12 17 -24 30 -28 30 -4 -1 -32 -19 -62
-41z"/>
<path d="M7683 14047 c-105 -78 -199 -147 -209 -152 -16 -10 -16 -12 1 -38 21
-33 26 -33 62 -4 25 21 351 262 377 279 13 9 -9 58 -26 58 -7 -1 -99 -65 -205
-143z"/>
<path d="M2948 13919 c-10 -5 -18 -14 -18 -18 0 -5 -57 -89 -127 -187 -70 -99
-186 -262 -258 -364 -341 -482 -537 -758 -564 -795 -206 -288 -415 -594 -415
-609 -1 -16 289 -229 639 -471 28 -19 88 -62 135 -95 47 -33 93 -59 102 -58
10 2 169 218 371 503 194 275 504 715 690 977 186 263 340 484 343 491 2 7 -3
20 -13 29 -26 23 -844 599 -857 604 -6 2 -19 -1 -28 -7z m81 -52 l22 -24 -99
-139 c-240 -340 -587 -830 -674 -954 -107 -153 -282 -400 -472 -669 -72 -101
-136 -186 -144 -188 -7 -3 -23 3 -34 15 l-21 20 603 854 c332 469 644 910 694
981 49 70 93 127 96 127 4 0 16 -11 29 -23z m116 -83 c14 -9 25 -20 25 -25 0
-5 -55 -87 -122 -182 -67 -94 -230 -325 -361 -512 -132 -187 -304 -430 -382
-540 -220 -311 -383 -542 -449 -637 -34 -48 -65 -87 -71 -88 -5 0 -23 10 -38
23 l-29 22 20 25 c11 14 86 120 168 236 396 563 451 640 614 869 31 44 175
248 319 453 144 204 267 372 272 372 5 0 21 -7 34 -16z m145 -112 c0 -7 -82
-129 -182 -270 -100 -141 -207 -293 -238 -337 -31 -44 -204 -289 -385 -545
-181 -256 -382 -541 -448 -635 -66 -93 -121 -171 -122 -173 -5 -6 -75 42 -75
51 0 4 42 67 93 140 52 73 110 155 129 182 19 28 69 97 110 155 41 58 222 314
403 570 181 256 392 555 470 665 78 110 150 212 159 227 l18 27 34 -22 c18
-12 34 -28 34 -35z m95 -54 c19 -13 35 -26 35 -30 0 -4 -36 -58 -79 -120 -104
-147 -291 -411 -473 -668 -302 -427 -684 -969 -752 -1067 -39 -56 -77 -102
-84 -103 -17 0 -72 41 -72 55 0 6 24 44 53 85 51 71 545 769 619 875 64 91
671 950 687 972 20 28 24 28 66 1z m117 -84 c21 -15 38 -31 38 -36 0 -5 -65
-100 -143 -211 -203 -286 -891 -1260 -1076 -1524 -86 -122 -159 -222 -164
-222 -16 -2 -88 53 -84 63 8 20 1378 1956 1385 1956 3 0 23 -12 44 -26z m114
-81 c24 -16 44 -34 44 -41 0 -8 -26 -50 -58 -95 -33 -45 -124 -174 -204 -287
-662 -939 -996 -1413 -1027 -1455 -20 -27 -48 -67 -61 -87 -14 -21 -28 -38
-31 -38 -13 0 -89 61 -89 71 0 6 31 54 68 108 465 657 869 1229 1066 1508 132
189 243 343 245 343 2 0 23 -12 47 -27z m120 -85 c25 -17 43 -37 40 -43 -2 -6
-158 -229 -346 -495 -189 -267 -498 -704 -687 -972 -189 -269 -347 -488 -349
-488 -9 0 -94 60 -94 66 0 5 238 343 780 1109 31 44 139 197 240 340 182 258
265 376 330 468 19 26 36 47 38 47 2 0 24 -14 48 -32z m84 -69 c0 -9 -188
-281 -369 -534 -28 -38 -233 -329 -456 -645 -223 -316 -438 -621 -478 -677
-40 -56 -75 -102 -79 -103 -18 -1 -5 30 40 92 156 221 653 924 835 1183 268
381 432 612 461 652 31 42 46 53 46 32z"/>
<path d="M12011 13095 c-293 -55 -541 -218 -702 -459 -142 -211 -218 -421
-239 -657 -17 -196 -15 -216 24 -255 29 -29 41 -34 80 -34 36 0 52 6 71 25 14
13 25 33 25 44 0 11 11 82 25 158 56 303 159 518 329 688 278 277 686 315 902
82 69 -73 107 -147 136 -260 27 -108 22 -296 -12 -402 -83 -263 -296 -515
-571 -676 -84 -49 -119 -89 -119 -135 0 -48 16 -73 56 -90 45 -19 89 -8 207
53 241 125 428 302 575 546 74 123 103 208 127 372 41 283 -15 531 -164 717
-76 97 -136 146 -242 202 -153 81 -347 112 -508 81z"/>
<path d="M6225 12483 c-121 -30 -223 -57 -228 -62 -4 -4 -4 -22 -1 -39 5 -23
12 -32 26 -32 10 0 101 20 201 46 286 71 258 61 251 92 -12 52 -15 52 -249 -5z"/>
<path d="M6235 12381 c-121 -31 -226 -59 -234 -62 -18 -7 -7 -59 13 -59 18 0
496 117 502 123 3 2 2 16 -2 31 -8 35 -17 34 -279 -33z"/>
<path d="M1401 11747 c-62 -89 -114 -166 -114 -172 0 -5 65 -56 144 -112 79
-56 155 -110 169 -120 43 -31 564 -398 577 -406 12 -7 242 306 243 330 0 10
-866 629 -894 639 -6 2 -62 -70 -125 -159z"/>
<path d="M1157 11571 c-9 -16 -17 -34 -17 -39 0 -9 138 -110 348 -256 32 -22
202 -142 379 -268 177 -125 327 -228 332 -228 11 0 51 53 51 67 0 4 -24 24
-52 43 -29 19 -82 56 -118 81 -36 25 -166 117 -290 204 -124 87 -309 219 -411
292 -103 73 -191 133 -196 133 -5 0 -16 -13 -26 -29z"/>
<path d="M4930 10198 c-71 -29 -93 -45 -112 -81 -11 -22 -17 -49 -14 -61 4
-15 162 -136 486 -371 264 -191 483 -352 485 -356 3 -4 0 -20 -5 -35 -18 -46
-4 -68 87 -142 49 -39 142 -124 207 -190 l119 -120 -61 -239 c-34 -131 -89
-341 -122 -468 -66 -252 -162 -622 -240 -925 -28 -107 -55 -211 -60 -230 l-9
-35 -623 -1 c-343 0 -911 -6 -1263 -12 -352 -7 -1011 -16 -1465 -22 -454 -5
-895 -12 -980 -15 -85 -2 -410 -8 -723 -11 -387 -5 -572 -11 -581 -18 -12 -9
-15 -91 -18 -448 l-4 -438 32 -10 c37 -13 31 25 62 -390 l17 -235 38 -3 c34
-3 39 -1 49 28 9 28 14 31 37 25 43 -10 298 -42 1091 -135 587 -68 706 -83
711 -89 4 -3 30 -68 58 -144 l50 -138 -24 -112 c-68 -317 -215 -1117 -215
-1169 0 -25 8 -23 155 23 72 22 148 41 170 42 l40 2 6 -170 c8 -215 24 -345
57 -462 14 -51 24 -94 21 -96 -2 -2 -141 -23 -309 -46 -168 -23 -381 -53 -475
-66 -202 -29 -963 -135 -1225 -171 -223 -31 -290 -43 -290 -53 0 -11 113 -47
220 -70 105 -22 646 -135 1280 -265 228 -48 456 -95 505 -106 118 -25 656
-137 720 -149 28 -6 113 -23 190 -40 199 -42 248 -50 1580 -263 l890 -142 231
79 231 78 74 -51 c67 -46 83 -53 164 -66 82 -13 333 -56 885 -150 113 -19 340
-58 505 -86 385 -65 772 -131 1000 -170 99 -17 298 -51 443 -75 144 -25 380
-65 525 -90 144 -24 329 -56 410 -69 l149 -26 64 -56 c35 -31 64 -58 64 -59 0
-2 -23 -17 -50 -35 -49 -31 -50 -33 -33 -52 14 -15 25 -18 58 -13 39 7 225 39
400 71 l90 16 54 -24 55 -24 -77 -44 c-42 -25 -77 -47 -77 -50 0 -7 50 -25
330 -120 450 -152 733 -224 1175 -299 66 -12 221 -39 345 -61 992 -177 1065
-185 1310 -136 74 15 230 51 347 81 209 53 212 53 265 39 95 -25 258 -54 306
-54 60 0 450 56 737 105 333 58 445 85 785 190 204 64 1211 364 1510 451 92
27 125 37 490 148 426 130 463 142 542 181 97 47 108 59 81 87 -26 26 -134 51
-335 77 -181 24 -635 71 -690 71 -21 0 -38 4 -38 9 0 4 28 30 63 57 183 143
366 333 476 494 74 108 99 158 149 300 95 273 151 522 167 747 l7 92 117 27
c225 51 446 106 474 116 38 15 86 117 132 283 20 72 39 136 43 144 4 7 61 30
127 50 183 57 234 83 308 160 43 44 69 80 76 106 16 56 43 460 35 519 -4 36
-15 58 -41 87 -39 43 -130 103 -215 142 -37 16 -62 35 -69 51 -9 19 -9 146 0
507 10 424 13 485 28 501 15 17 15 21 -2 59 -74 163 -576 384 -1249 549 -304
74 -481 110 -1056 211 -63 11 -149 27 -190 35 -109 20 -531 88 -775 124 -115
17 -253 37 -305 45 -52 8 -246 35 -430 60 -537 73 -713 102 -993 162 -18 4
-29 14 -34 31 -7 29 -55 84 -227 262 -602 624 -821 852 -824 860 -2 5 15 18
37 30 72 36 242 140 428 262 100 65 197 125 215 132 52 22 71 49 66 92 l-4 37
140 67 c78 37 209 100 291 140 83 40 263 126 400 192 138 65 258 128 268 140
37 44 9 118 -64 164 -39 24 -45 25 -81 13 -33 -10 -38 -16 -36 -37 3 -22 -18
-34 -292 -163 -162 -77 -326 -155 -365 -173 -38 -19 -160 -77 -270 -129 -110
-52 -247 -117 -305 -145 -458 -218 -704 -332 -711 -330 -5 2 -111 104 -236
228 l-228 225 -125 62 c-214 105 -301 134 -525 177 -486 92 -1055 162 -1530
186 -115 6 -291 15 -390 20 -380 20 -932 32 -1205 26 -572 -13 -1346 -61
-1565 -97 -70 -12 -178 -10 -615 11 -107 5 -278 12 -380 16 l-185 7 -19 -74
c-10 -41 -22 -77 -25 -81 -3 -4 -157 101 -341 233 -184 132 -468 335 -632 452
-248 177 -295 215 -287 229 5 9 9 19 9 21 0 5 -69 48 -73 46 -1 0 -13 -5 -27
-11z m4890 -888 c1014 -36 1391 -64 1952 -146 504 -73 666 -110 861 -195 103
-45 109 -49 99 -66 -6 -9 -33 -6 -107 12 -228 53 -609 107 -895 124 -325 21
-873 33 -1207 28 -291 -4 -383 -10 -558 -31 -268 -34 -317 -43 -371 -69 -54
-26 -56 -44 -15 -125 46 -90 46 -90 146 -102 108 -13 463 -84 520 -103 77 -27
97 -95 113 -389 l7 -128 -189 0 c-167 0 -187 -2 -182 -16 3 -8 81 -151 172
-317 142 -259 327 -598 353 -647 17 -31 89 -42 245 -35 136 6 153 9 185 31 46
31 89 32 96 2 l6 -23 396 3 396 4 39 31 39 31 49 -17 c44 -16 70 -16 277 -8
125 6 505 16 843 22 490 10 700 10 1035 -1 473 -14 439 -7 491 -96 27 -46 22
-44 228 -90 148 -33 303 -59 536 -89 627 -83 1312 -184 1765 -260 149 -25 308
-52 355 -60 87 -15 473 -91 610 -120 454 -98 947 -257 1221 -395 177 -89 259
-160 259 -224 l0 -33 -182 -7 c-151 -6 -185 -10 -193 -23 -34 -54 -27 -52
-265 -68 -124 -8 -317 -22 -430 -30 -113 -8 -338 -24 -500 -35 -162 -11 -425
-30 -585 -41 -159 -11 -375 -26 -479 -34 l-189 -14 -50 26 -50 25 -261 -33
c-192 -24 -308 -33 -438 -35 -180 -2 -254 -12 -320 -45 -58 -30 -151 -112
-226 -201 l-70 -83 -52 -460 c-49 -440 -50 -460 -33 -473 10 -7 28 -15 41 -19
23 -5 31 -37 12 -48 -6 -4 -20 -25 -31 -48 -20 -38 -22 -62 -27 -287 -7 -330
7 -375 129 -429 106 -47 176 -55 474 -55 305 1 401 10 810 78 110 18 201 32
203 31 2 -2 7 -39 11 -83 10 -97 15 -106 55 -99 280 49 629 103 756 117 313
34 546 70 800 124 63 13 151 30 196 36 110 16 110 16 90 84 -18 59 -30 67 -69
42 -12 -7 -51 -19 -87 -25 -83 -14 -305 -49 -390 -61 -36 -5 -155 -23 -264
-40 -110 -16 -210 -30 -223 -30 -13 0 -29 10 -39 25 -16 24 -15 32 3 130 13
72 16 105 8 105 -6 0 -74 -13 -150 -29 -98 -20 -144 -26 -152 -19 -31 26 7
277 46 309 11 10 65 25 118 34 231 40 216 35 225 78 12 56 34 94 60 100 13 3
156 24 318 47 162 22 357 50 433 60 76 11 147 20 157 20 30 0 50 -28 50 -71
l0 -40 78 6 c42 3 103 8 134 11 98 9 113 -26 87 -202 -8 -48 -19 -84 -30 -95
-27 -27 -91 -41 -209 -48 l-104 -6 -12 -75 c-18 -111 -18 -132 4 -126 38 11
520 51 528 43 11 -10 -77 -290 -114 -367 -15 -30 -38 -62 -52 -72 -35 -26
-287 -87 -730 -179 -183 -38 -366 -78 -383 -85 -7 -2 -53 -13 -103 -24 -49
-10 -143 -30 -209 -45 -187 -41 -771 -121 -1210 -166 -55 -5 -176 -19 -270
-29 -390 -44 -1031 -84 -1267 -78 l-147 3 -55 54 c-57 57 -84 106 -63 114 8 3
6 16 -9 43 -12 22 -45 94 -73 162 -29 68 -61 132 -72 143 -19 19 -20 23 -24
69 -1 14 -23 79 -48 145 -24 66 -55 152 -67 190 -57 180 -307 685 -415 841
-85 122 -212 256 -295 314 -158 108 -479 233 -750 290 -263 55 -367 65 -700
65 -280 0 -314 -2 -415 -23 -146 -31 -193 -46 -300 -99 -187 -92 -291 -195
-446 -438 -98 -153 -121 -212 -184 -464 -41 -165 -67 -290 -99 -482 l-25 -147
-88 -146 c-62 -103 -93 -146 -106 -146 -10 0 -166 18 -345 40 -180 22 -419 51
-532 65 -113 14 -236 30 -275 35 -38 6 -126 17 -195 25 -69 7 -251 29 -405 49
-330 41 -809 100 -1275 156 -735 89 -729 88 -785 125 -70 48 -163 132 -179
164 -7 14 -32 80 -54 146 -108 319 -144 468 -178 743 -24 195 -37 184 204 163
138 -12 185 -20 193 -31 9 -12 10 -10 6 8 -3 13 0 22 6 22 7 0 91 -7 187 -15
96 -8 285 -24 420 -35 135 -11 326 -27 425 -35 99 -8 288 -24 420 -35 279 -24
618 -53 930 -80 121 -11 326 -28 455 -40 129 -11 338 -29 464 -40 126 -11 235
-20 242 -20 16 0 18 -33 4 -60 -7 -12 -7 -180 0 -496 5 -263 7 -480 5 -482 -2
-2 -84 6 -182 17 -98 11 -288 32 -423 46 -135 14 -303 32 -375 40 -71 8 -238
26 -370 40 -269 28 -535 57 -795 85 -201 22 -453 49 -790 85 -129 13 -260 27
-291 31 l-57 6 -50 106 c-67 142 -109 249 -137 352 -29 104 -33 89 -5 -19 26
-104 60 -193 130 -338 55 -115 60 -122 92 -127 44 -7 162 -20 458 -51 135 -14
324 -34 420 -45 96 -11 285 -31 420 -45 135 -14 326 -34 425 -45 99 -11 268
-29 375 -40 506 -54 928 -99 1068 -114 62 -7 113 -11 115 -10 1 1 -2 215 -6
475 -6 327 -5 481 2 497 6 13 11 34 11 47 0 29 -8 28 138 14 130 -13 146 -9
188 46 26 35 27 38 11 50 -11 8 -69 15 -150 19 -72 4 -148 9 -168 12 l-35 5
18 127 c10 72 16 155 13 192 -24 316 -29 482 -29 985 -1 526 -2 572 -19 603
-21 39 -33 43 -14 5 12 -23 14 -111 10 -518 -4 -320 -1 -547 6 -655 24 -339
25 -473 6 -601 l-18 -119 -36 0 c-20 0 -144 9 -276 20 -132 11 -384 31 -560
45 -176 14 -430 34 -565 45 -135 11 -362 29 -505 40 -143 11 -368 29 -500 40
-132 10 -359 28 -505 40 -146 11 -344 27 -440 35 -96 8 -179 15 -185 15 -7 0
-9 39 -7 110 2 60 -4 216 -14 347 -24 317 -25 667 -2 787 10 49 16 91 14 93
-10 10 -27 -71 -41 -202 -16 -134 -16 -167 -1 -437 9 -161 21 -351 27 -421 11
-128 9 -250 -4 -263 -4 -4 -83 -2 -175 4 -113 9 -168 9 -170 2 -5 -15 -30 -12
-39 4 -4 8 -5 59 -2 113 3 54 2 193 -2 308 -21 577 -22 776 -5 889 9 61 18
111 20 113 2 2 9 -10 16 -27 l12 -30 142 0 c157 0 248 -8 240 -21 -3 -5 -1 -9
4 -9 6 0 16 24 22 53 11 47 81 281 94 317 5 13 -25 15 -211 18 -120 2 -219 5
-220 6 -6 6 49 153 66 176 10 14 21 49 25 78 19 148 252 1055 312 1220 l16 42
61 -42 c33 -24 95 -77 136 -118 42 -41 91 -87 110 -101 l34 -27 -22 -35 c-11
-19 -21 -46 -21 -59 0 -56 80 -133 150 -144 65 -11 64 -8 42 -150 -30 -189
-87 -652 -81 -658 10 -10 614 -7 649 4 19 5 51 10 71 10 31 0 38 -5 49 -29
l11 -29 342 -4 342 -5 27 25 c26 24 29 24 80 12 67 -16 1140 -42 1154 -28 2 2
-59 123 -135 268 -75 146 -181 351 -235 455 -221 428 -299 575 -302 572 -2 -2
57 -131 132 -285 l136 -282 -38 -61 -39 -61 -168 5 c-93 3 -170 7 -172 9 -1 2
8 62 21 133 13 72 40 222 59 335 19 113 39 214 44 225 6 15 -3 42 -36 108 -24
48 -46 87 -49 87 -3 0 -1 -8 4 -17 7 -12 0 -62 -19 -153 -16 -74 -35 -183 -44
-242 -19 -135 -74 -451 -80 -456 -2 -3 -45 -9 -94 -14 -73 -7 -96 -6 -118 6
-16 7 -47 19 -70 25 -39 11 -42 14 -53 64 -36 152 -124 231 -300 272 -91 21
-525 56 -589 48 -25 -3 -65 -16 -88 -28 l-41 -23 -31 57 c-16 31 -36 65 -45
76 -13 18 -12 24 7 58 21 37 21 38 1 51 -10 8 -38 33 -62 55 l-43 40 31 108
c74 255 105 317 175 349 28 12 23 13 -62 14 l-91 0 -11 -32 c-6 -18 -27 -96
-47 -173 -20 -77 -38 -143 -41 -147 -2 -5 -30 9 -61 29 -31 20 -64 36 -72 36
-22 -1 -206 141 -266 203 -31 33 -59 54 -72 54 -12 0 -22 3 -22 6 0 3 14 39
32 81 25 61 29 79 20 94 -7 10 -12 25 -12 33 0 22 107 133 155 162 150 88 456
134 1120 169 647 34 1043 41 1495 25z m-3055 -141 c138 -7 252 -14 254 -15 2
-2 -7 -15 -19 -31 -19 -24 -20 -29 -6 -39 9 -6 16 -15 16 -20 0 -12 -101 -267
-110 -277 -8 -9 -442 296 -449 314 -1 6 0 26 3 45 8 41 -22 38 311 23z m-342
-527 c98 -79 168 -129 259 -188 43 -27 78 -56 78 -65 0 -8 -11 -48 -25 -89
-27 -78 -204 -785 -255 -1012 -16 -76 -30 -153 -30 -171 0 -20 -10 -47 -25
-67 -14 -19 -33 -58 -42 -87 l-17 -53 -70 1 c-141 1 -415 15 -421 21 -4 4 5
48 19 100 63 225 436 1641 436 1654 0 25 20 15 93 -44z m5914 -7 c145 -19 270
-48 323 -75 36 -19 233 -171 244 -189 7 -11 -227 -131 -256 -131 -35 0 -160
-53 -226 -95 -1 -1 2 -14 7 -27 9 -23 6 -27 -30 -43 -21 -10 -39 -21 -39 -25
0 -4 -18 -15 -40 -25 -22 -10 -40 -19 -40 -20 0 -2 7 -18 15 -38 l14 -35 -87
-92 -88 -91 -49 6 c-49 7 -54 5 -312 -129 -144 -75 -266 -136 -271 -136 -4 0
-25 100 -46 223 -34 197 -67 358 -150 718 -13 59 -29 123 -34 143 -6 20 -7 38
-4 40 4 2 120 9 257 15 138 6 270 13 295 15 144 9 411 4 517 -9z m1037 -723
c159 -148 228 -225 358 -397 92 -123 112 -154 105 -162 -10 -10 -138 8 -142
20 -2 7 -6 33 -10 59 l-6 46 -132 1 c-139 0 -173 7 -210 42 -12 11 -42 32 -67
47 -25 14 -46 26 -47 27 -2 1 -73 429 -73 440 0 8 43 24 57 22 6 -1 81 -67
167 -145z m-300 6 c27 -138 100 -532 111 -605 l7 -43 -137 0 c-165 0 -728 20
-734 26 -3 3 4 11 15 18 10 8 30 23 44 34 l24 20 -17 73 c-24 104 -23 150 7
178 l23 22 39 -26 c33 -23 47 -26 94 -23 73 5 143 40 171 84 21 34 21 48 3
111 -5 18 1 25 38 44 23 12 63 36 88 54 57 42 182 115 196 115 6 0 18 -37 28
-82z m-7436 -1044 c17 -3 32 -8 32 -12 0 -4 -15 -58 -33 -121 l-33 -114 -94 2
c-52 1 -174 6 -270 11 -96 6 -373 19 -615 30 -242 11 -678 31 -970 45 -291 14
-631 30 -755 35 -124 5 -364 17 -535 25 -170 8 -371 17 -445 20 -226 9 -290
16 -290 30 0 16 187 22 845 30 253 2 856 9 1340 15 1365 17 1734 17 1823 4z
m486 -536 c-4 -62 -9 -158 -13 -213 l-6 -100 -38 -9 c-21 -5 -36 -14 -34 -20
3 -6 12 -36 22 -68 l18 -56 -37 -179 c-20 -98 -39 -188 -42 -200 -5 -26 -51
-53 -88 -53 -14 0 -37 11 -52 23 -23 20 -27 31 -26 73 0 27 10 92 21 144 41
192 43 214 27 282 -8 35 -31 111 -50 169 -20 59 -36 115 -36 126 0 20 43 94
92 156 l30 37 109 0 109 0 -6 -112z m-5740 -201 c15 -11 17 -26 14 -95 l-3
-83 38 -6 c35 -5 37 -8 37 -42 0 -62 -4 -63 -126 -51 -97 9 -111 13 -131 36
-33 36 -29 50 20 71 26 12 27 16 27 86 0 43 5 78 12 85 16 16 90 15 112 -1z
m2133 -142 c22 -15 23 -20 17 -103 -3 -48 -7 -92 -9 -99 -4 -12 26 -23 67 -23
15 0 29 -3 32 -8 5 -8 -9 -90 -16 -98 -3 -3 -66 0 -139 6 -123 10 -136 13
-156 36 -37 40 -27 76 22 86 23 4 33 48 34 139 1 33 6 61 14 67 30 25 93 23
134 -3z m2726 -207 c27 -10 27 -11 27 -105 0 -52 -4 -103 -10 -113 -9 -16 -4
-19 51 -25 l61 -7 -6 -41 c-4 -23 -8 -42 -9 -43 -1 -1 -73 1 -160 4 -152 5
-159 6 -173 28 -21 32 -9 63 27 71 34 7 36 11 44 135 l7 97 41 9 c43 9 51 8
100 -10z m-4548 -118 c764 -73 1230 -121 1237 -128 4 -4 32 -74 62 -155 38
-105 50 -147 40 -147 -17 0 -631 67 -691 75 l-43 6 0 78 c0 91 -9 171 -20 171
-4 0 -9 -52 -12 -115 -2 -63 -7 -117 -9 -120 -3 -3 -64 2 -135 10 -122 15
-238 28 -642 74 -95 11 -178 18 -185 16 -7 -3 -18 -1 -25 4 -10 6 -1 36 40
136 l53 127 65 -6 c36 -4 155 -15 265 -26z m18606 -23 c41 -27 75 -91 90 -172
17 -90 6 -405 -16 -475 -23 -73 -77 -153 -133 -196 -46 -35 -70 -41 -101 -24
-29 15 -32 37 -11 86 41 95 79 289 94 479 6 72 -3 210 -20 293 -6 31 -5 32 28
32 20 0 50 -10 69 -23z m-17091 -128 c69 -7 129 -16 134 -20 5 -5 3 -18 -6
-31 -15 -23 -74 -194 -80 -233 -3 -18 -10 -20 -63 -16 -33 1 -67 7 -75 11 -8
5 -23 32 -34 62 -10 29 -33 92 -52 140 -19 48 -34 93 -34 99 0 8 14 9 43 5 23
-3 98 -11 167 -17z m13589 -111 c-4 -57 -5 -105 -3 -106 1 -2 12 16 24 40 54
106 126 168 197 168 54 0 87 -16 134 -67 50 -52 81 -105 115 -193 28 -73 28
-80 29 -270 0 -212 -7 -259 -56 -369 -62 -138 -179 -231 -276 -217 -81 11
-153 65 -189 141 -13 28 -24 48 -24 45 -4 -27 -10 -99 -15 -162 l-7 -76 -91
-6 c-51 -3 -147 -8 -214 -11 l-123 -5 0 38 c0 21 9 142 19 268 11 126 25 306
32 399 l12 170 133 135 c131 133 134 135 206 157 111 33 104 39 97 -79z
m-11091 -159 c26 -7 49 -14 52 -16 2 -2 11 -61 20 -131 l15 -127 30 -3 c17 -2
174 -23 350 -47 176 -24 343 -46 370 -50 l51 -6 -12 103 c-20 167 -22 158 34
158 26 0 53 -4 60 -9 13 -8 23 -76 87 -566 14 -110 35 -265 45 -345 24 -174
28 -206 36 -290 3 -36 10 -103 15 -150 13 -120 12 -128 -15 -145 -21 -14 -37
-13 -197 15 -96 17 -223 40 -284 50 -412 72 -458 80 -487 91 -45 18 -58 51
-78 202 -11 78 -31 228 -45 332 -34 246 -61 450 -81 600 -8 66 -22 163 -30
215 -22 146 -25 140 64 119z m-561 -351 c6 -7 17 -40 25 -73 9 -33 57 -211
108 -395 51 -184 107 -389 125 -455 18 -66 54 -196 80 -290 74 -266 114 -419
112 -420 -54 -26 -151 -64 -155 -61 -4 4 -51 173 -168 601 -20 72 -51 184 -69
250 -19 66 -79 287 -135 490 -56 204 -112 408 -126 455 -13 47 -24 91 -24 99
0 11 198 -164 227 -201z m15582 -481 c6 -8 8 -17 4 -21 -4 -3 -17 -56 -29
-116 -12 -60 -31 -124 -41 -142 -21 -36 -67 -63 -126 -72 -52 -9 -77 7 -77 47
0 35 35 256 41 261 5 3 190 53 205 55 6 0 17 -5 23 -12z m-16388 -194 c41 -21
88 -56 129 -97 70 -71 133 -163 125 -184 -2 -7 9 -37 25 -66 100 -176 139
-450 99 -679 -7 -40 -7 -63 0 -71 7 -8 6 -33 -4 -76 -50 -239 -166 -417 -325
-501 -39 -21 -59 -24 -150 -24 -101 0 -108 1 -168 34 -144 78 -245 210 -326
424 -54 144 -71 255 -70 462 0 164 3 203 23 285 62 252 171 418 325 496 68 34
75 35 161 32 78 -3 100 -7 156 -35z m13423 -199 c21 -8 21 -94 1 -199 -16 -88
-40 -135 -76 -152 -32 -16 -345 -45 -440 -41 l-74 3 -2 55 c-2 30 7 114 20
185 l22 130 225 11 c311 15 306 15 324 8z m-10187 -672 c13 -83 41 -150 95
-230 17 -24 27 -46 25 -49 -3 -3 -136 9 -294 27 -287 31 -554 60 -563 60 -2 0
14 19 35 41 54 56 99 74 235 94 63 9 135 23 160 32 25 8 70 21 101 30 39 10
68 26 90 49 28 29 40 34 69 32 l34 -3 13 -83z m2618 8 c171 -22 549 -69 840
-106 292 -36 532 -68 534 -69 2 -2 -17 -64 -42 -137 -25 -73 -62 -204 -82
-291 l-37 -158 -27 5 c-14 3 -406 60 -871 126 -907 129 -890 126 -890 138 0 5
35 73 79 153 80 146 113 232 126 327 6 48 9 52 33 52 15 0 167 -18 337 -40z
m3380 -10 c302 -43 579 -262 744 -586 60 -118 64 -132 41 -139 -18 -6 -18 -8
5 -73 26 -75 51 -189 60 -273 6 -51 8 -56 27 -51 20 5 20 3 16 -164 -7 -223
-38 -356 -129 -538 -89 -181 -233 -334 -389 -415 -145 -75 -187 -85 -355 -86
-130 0 -160 3 -225 23 -162 51 -290 130 -412 255 -263 267 -406 686 -368 1078
28 298 129 534 304 717 192 200 429 288 681 252z m2717 -960 c26 -151 176
-461 306 -633 l44 -58 -33 5 c-31 5 -256 35 -618 82 l-134 17 7 221 c8 235 9
240 68 319 15 20 285 97 328 94 21 -2 26 -9 32 -47z"/>
<path d="M7074 6693 c-7 -4 -19 -26 -28 -48 l-17 -39 48 -47 48 -48 203 -2
c239 -3 240 -3 297 111 l35 70 -252 0 c-139 0 -269 3 -288 5 -19 3 -40 2 -46
-2z"/>
<path d="M14500 5388 c-22 -12 -26 -23 -34 -86 -7 -59 -6 -76 5 -88 15 -15
197 -30 437 -36 99 -2 115 0 123 14 13 24 16 155 4 166 -6 5 -104 15 -220 21
-115 7 -228 14 -250 17 -23 2 -51 -1 -65 -8z"/>
<path d="M18510 4339 c-641 -88 -601 -81 -615 -103 -16 -24 -115 -508 -115
-561 0 -42 6 -43 145 -20 50 7 187 28 305 45 292 42 453 70 463 79 16 16 94
548 84 575 -8 20 -16 20 -267 -15z"/>
<path d="M4820 4823 c0 -5 7 -60 15 -123 8 -63 32 -258 54 -433 37 -291 52
-364 79 -381 4 -3 134 -23 288 -46 153 -22 321 -47 373 -56 51 -8 96 -13 98
-10 3 2 0 44 -6 93 -39 302 -101 815 -101 836 0 29 17 25 -270 63 -567 73
-530 69 -530 57z"/>
<path d="M3055 3718 c-2 -13 -6 -52 -7 -88 l-3 -65 71 -3 c63 -2 75 0 99 20
18 16 24 29 20 41 -8 20 -142 117 -162 117 -7 0 -15 -10 -18 -22z"/>
<path d="M3490 3672 c-73 -23 -117 -158 -90 -273 34 -146 110 -207 174 -140
70 73 73 247 4 359 -22 36 -64 62 -88 54z"/>
<path d="M3060 3283 c0 -22 38 -123 52 -140 19 -23 42 -13 95 40 48 47 52 55
45 82 l-8 30 -92 3 c-83 2 -92 1 -92 -15z"/>
<path d="M12430 2961 c-30 -21 -53 -43 -50 -47 2 -5 35 -28 73 -51 105 -65
179 -55 141 19 -33 64 -75 118 -92 118 -9 -1 -42 -18 -72 -39z"/>
<path d="M12153 2627 c-32 -47 -43 -82 -43 -139 l0 -51 84 6 c88 6 142 23 165
51 12 14 11 20 -10 42 -20 22 -161 124 -171 124 -2 0 -13 -15 -25 -33z"/>
<path d="M13422 2069 c-3 -58 -47 -218 -79 -290 -86 -189 -233 -330 -407 -391
-69 -24 -97 -28 -188 -28 -175 0 -313 56 -457 184 -36 33 -50 43 -31 22 89
-97 242 -186 363 -212 289 -62 566 86 712 381 51 102 98 270 92 330 l-4 40 -1
-36z"/>
<path d="M12173 2078 c-18 -5 -33 -14 -33 -21 0 -7 15 -52 33 -102 31 -81 37
-90 61 -93 30 -4 76 30 76 55 0 7 -24 49 -52 92 -52 77 -53 77 -85 69z"/>
<path d="M12543 1666 c-46 -34 -86 -65 -89 -68 -3 -4 25 -29 62 -56 55 -40 73
-48 93 -43 44 12 94 145 75 198 -16 47 -49 40 -141 -31z"/>
<path d="M13009 1673 c-25 -30 -85 -170 -76 -179 8 -9 157 65 163 81 9 22 -30
119 -48 123 -9 2 -26 -10 -39 -25z"/>
</g>
</svg>
