<?xml version="1.0" standalone="no"?>
<!DOCTYPE svg PUBLIC "-//W3C//DTD SVG 20010904//EN"
 "http://www.w3.org/TR/2001/REC-SVG-20010904/DTD/svg10.dtd">
<svg version="1.0" xmlns="http://www.w3.org/2000/svg"
 width="2000.000000pt" height="1021.000000pt" viewBox="0 0 2000.000000 1021.000000"
 preserveAspectRatio="xMidYMid meet">
<metadata>
Created by potrace 1.12, written by Peter Selinger 2001-2015
</metadata>
<g transform="translate(0.000000,1021.000000) scale(0.100000,-0.100000)"
fill="#000000" stroke="none">
<path d="M4915 10193 c-69 -24 -122 -92 -111 -138 4 -16 100 -92 313 -246 560
-405 663 -481 663 -484 0 -2 -5 -16 -11 -31 -16 -44 -4 -69 63 -122 35 -27
128 -112 207 -189 l144 -140 -61 -239 c-34 -131 -89 -342 -122 -469 -33 -126
-85 -327 -116 -445 -30 -118 -68 -266 -85 -327 -16 -62 -43 -166 -59 -230 -17
-65 -35 -134 -40 -154 l-10 -35 -547 0 c-302 0 -876 -5 -1278 -12 -401 -7
-1031 -17 -1400 -22 -2058 -28 -2397 -34 -2410 -44 -10 -9 -14 -100 -17 -448
l-4 -438 32 -10 c37 -13 31 25 62 -390 l17 -235 38 -3 c34 -3 39 0 48 27 11
32 27 38 57 22 9 -5 64 -14 122 -20 58 -6 179 -20 270 -31 256 -30 1000 -118
1150 -136 74 -8 159 -18 189 -22 l54 -7 53 -144 c51 -135 53 -146 43 -190 -70
-309 -234 -1204 -227 -1241 3 -14 24 -10 163 32 88 27 169 47 180 46 19 -3 20
-13 26 -178 8 -201 30 -377 59 -468 11 -35 20 -70 20 -77 0 -8 -20 -15 -53
-19 -71 -9 -878 -122 -1047 -146 -74 -11 -283 -40 -465 -65 -726 -101 -748
-105 -733 -120 15 -15 134 -47 308 -83 196 -41 871 -181 1620 -337 223 -46
578 -120 790 -164 212 -44 457 -92 545 -106 88 -14 201 -32 250 -40 102 -17
336 -54 530 -85 143 -22 216 -34 720 -115 187 -30 404 -65 481 -77 l142 -21
230 78 229 77 74 -51 74 -51 330 -55 c182 -31 407 -69 500 -85 94 -16 278 -48
410 -70 303 -52 703 -120 1000 -170 127 -22 352 -60 500 -85 149 -25 374 -64
500 -85 127 -21 351 -59 499 -85 l268 -45 64 -56 c35 -31 64 -58 64 -59 0 -2
-23 -17 -50 -35 -49 -32 -50 -33 -33 -52 21 -23 0 -25 323 33 l226 40 54 -23
54 -24 -77 -44 c-42 -25 -77 -47 -77 -51 0 -12 438 -161 695 -235 307 -89 466
-125 815 -185 129 -22 345 -60 480 -84 515 -93 672 -118 865 -135 96 -9 125
-8 230 10 134 23 271 54 485 111 l146 38 79 -20 c199 -51 283 -58 446 -34 733
108 949 151 1324 268 132 42 341 105 465 142 124 37 293 87 375 112 186 55
296 88 495 147 384 114 1002 299 1075 323 102 33 236 95 254 116 50 61 -162
105 -793 165 l-289 27 89 71 c240 192 452 432 546 619 34 67 118 313 156 455
37 139 68 321 77 452 l7 96 97 22 c193 44 467 111 491 121 14 5 35 24 47 42
23 34 92 235 113 330 7 31 18 61 24 66 6 4 40 16 76 25 100 28 180 56 240 86
71 36 174 142 189 196 16 55 43 459 35 518 -4 36 -15 58 -41 87 -39 43 -130
103 -215 142 -37 16 -62 35 -69 51 -9 19 -9 145 0 508 10 425 13 484 28 500
16 17 15 21 -5 63 -79 162 -594 386 -1262 549 -350 85 -1041 214 -1690 316
-107 17 -235 37 -285 45 -125 20 -680 99 -915 130 -366 48 -576 84 -843 142
-18 4 -29 14 -34 31 -8 32 -39 66 -502 546 -424 439 -545 565 -549 575 -1 4
17 18 40 31 99 54 273 161 412 253 82 54 174 112 205 127 77 40 94 60 89 106
l-4 37 100 47 c56 26 173 82 261 125 213 103 387 187 577 278 92 44 161 84
167 96 27 49 -2 114 -70 157 -39 24 -45 25 -81 13 -33 -10 -38 -16 -36 -37 3
-22 -13 -32 -207 -124 -115 -54 -241 -114 -280 -133 -38 -18 -209 -99 -380
-180 -170 -81 -443 -210 -605 -287 -431 -205 -459 -218 -467 -218 -5 0 -112
102 -238 228 l-230 227 -125 61 c-234 115 -350 150 -700 209 -579 97 -934 133
-1675 170 -825 42 -1490 37 -2300 -15 -180 -12 -542 -48 -565 -56 -24 -9 -146
-6 -606 16 -236 11 -456 20 -490 20 l-60 0 -18 -72 c-11 -40 -22 -76 -25 -80
-4 -4 -180 116 -391 268 -212 152 -496 355 -632 452 -206 148 -245 180 -237
194 5 9 9 19 9 21 0 5 -69 48 -73 46 -1 -1 -20 -8 -42 -16z m4840 -883 c501
-13 1086 -42 1340 -65 539 -50 1209 -156 1393 -220 154 -54 253 -102 246 -120
-6 -16 -8 -16 -118 12 -145 36 -499 89 -751 112 -237 22 -633 34 -1145 35
l-535 1 -250 -33 c-269 -35 -267 -34 -337 -64 -61 -26 -62 -44 -8 -146 l40
-77 52 -3 c120 -6 533 -89 588 -117 16 -8 36 -28 44 -43 18 -35 35 -163 44
-329 l7 -133 -182 0 c-100 0 -184 -4 -187 -8 -3 -5 57 -120 133 -258 340 -617
381 -693 381 -703 0 -6 12 -19 27 -28 24 -16 50 -18 200 -16 159 1 174 3 202
23 17 12 46 24 65 27 31 5 36 3 41 -18 l6 -24 396 4 397 3 38 31 39 31 53 -18
c44 -15 71 -17 152 -12 368 23 1690 37 2149 22 l270 -8 37 -39 c21 -22 40 -50
44 -63 4 -18 17 -26 57 -35 271 -64 448 -96 762 -136 110 -14 261 -34 335 -45
347 -48 441 -62 665 -96 132 -19 269 -40 305 -45 88 -13 565 -93 775 -130 578
-102 1018 -210 1396 -342 445 -156 669 -289 669 -398 l0 -26 -182 -7 c-150 -6
-185 -10 -193 -23 -35 -55 -9 -51 -475 -83 -239 -17 -559 -39 -710 -50 -151
-10 -410 -29 -575 -40 -165 -11 -387 -27 -493 -35 l-194 -14 -50 25 -51 26
-136 -17 c-75 -9 -185 -23 -246 -32 -60 -8 -209 -18 -330 -22 -321 -11 -338
-19 -586 -306 -14 -16 -27 -108 -68 -477 -28 -252 -51 -460 -51 -463 0 -2 18
-14 40 -25 39 -20 51 -42 29 -56 -6 -3 -20 -27 -32 -52 -18 -41 -20 -74 -25
-280 -7 -322 7 -371 118 -427 96 -49 189 -60 495 -60 300 1 423 13 838 83 92
15 167 26 168 23 10 -113 18 -164 27 -173 6 -6 70 1 193 21 349 58 443 72 693
101 309 37 480 64 617 95 58 14 162 34 232 45 134 22 157 28 157 39 0 4 -7 31
-15 59 -17 56 -30 63 -69 37 -21 -14 -751 -134 -922 -151 -59 -6 -63 -5 -79
20 -17 25 -17 31 2 131 11 58 16 105 12 105 -5 0 -72 -13 -149 -29 -78 -17
-148 -27 -155 -25 -18 7 -22 37 -13 109 14 113 38 193 63 209 12 8 89 26 170
40 81 15 151 29 156 32 5 3 9 15 9 27 1 40 36 104 61 110 13 3 157 24 319 46
162 23 364 51 448 62 147 21 153 21 172 4 14 -12 20 -31 20 -58 l0 -39 58 6
c107 11 221 11 232 0 31 -31 15 -249 -21 -285 -27 -27 -91 -41 -209 -48 l-105
-6 -14 -98 c-8 -53 -12 -99 -10 -101 2 -2 31 0 64 5 88 12 477 41 482 36 9 -9
-74 -277 -111 -360 -13 -29 -34 -62 -47 -74 -29 -26 -256 -84 -684 -173 -159
-33 -357 -76 -440 -96 -307 -71 -363 -83 -490 -104 -225 -37 -609 -86 -1025
-130 -102 -11 -219 -24 -260 -30 -244 -32 -993 -80 -1258 -80 l-163 0 -56 52
c-66 63 -92 106 -71 119 10 7 9 16 -8 46 -12 21 -45 94 -74 162 -30 69 -62
133 -72 143 -18 18 -19 22 -23 68 -1 14 -23 79 -48 145 -24 66 -55 152 -67
190 -54 168 -296 662 -405 825 -84 126 -234 285 -319 338 -164 104 -431 210
-673 268 -268 63 -540 89 -858 81 -235 -6 -396 -30 -515 -77 -169 -66 -321
-172 -415 -289 -55 -68 -200 -293 -223 -346 -62 -139 -130 -420 -201 -827 -21
-115 -22 -118 -108 -262 -101 -167 -77 -155 -250 -132 -59 8 -205 26 -323 41
-118 14 -267 32 -330 40 -179 23 -433 54 -570 70 -69 9 -213 27 -320 41 -107
13 -267 33 -355 44 -983 115 -1712 208 -1739 222 -28 14 -144 109 -179 145
-33 36 -68 124 -142 360 -61 196 -94 352 -121 571 -24 193 -35 183 186 165
193 -17 207 -19 213 -36 2 -6 2 -1 0 12 -4 23 -3 23 49 18 29 -4 87 -9 128
-12 41 -3 179 -14 305 -25 127 -10 340 -28 475 -39 756 -63 1452 -122 1940
-166 91 -8 278 -24 415 -36 138 -12 252 -23 254 -25 3 -3 -1 -26 -7 -52 -9
-35 -10 -161 -3 -512 6 -255 8 -466 6 -468 -3 -4 -116 8 -520 53 -71 8 -260
28 -420 45 -159 17 -348 37 -420 45 -71 8 -218 24 -325 35 -107 11 -296 31
-420 45 -124 13 -313 33 -420 45 -107 11 -253 27 -325 35 -71 8 -197 22 -280
30 -82 9 -150 17 -151 18 -1 1 -20 38 -42 82 -54 110 -127 296 -148 378 -9 37
-19 66 -21 63 -8 -8 46 -195 81 -279 61 -148 120 -259 141 -268 11 -4 133 -20
270 -34 138 -14 439 -46 670 -71 231 -24 483 -51 560 -59 77 -8 201 -21 275
-29 74 -8 225 -24 335 -36 110 -11 279 -29 375 -40 96 -10 288 -31 425 -45
138 -15 280 -30 318 -34 37 -4 68 -6 70 -5 1 1 -2 211 -6 466 -6 320 -5 474 2
499 6 20 11 47 11 59 0 21 3 22 48 17 26 -4 86 -9 135 -13 l87 -7 40 42 c22
23 40 46 40 52 0 18 -44 26 -176 33 -72 3 -144 9 -161 12 l-29 6 18 126 c10
72 16 155 13 192 -24 316 -29 482 -29 985 -1 526 -2 572 -19 603 -21 39 -33
43 -14 5 12 -23 14 -111 10 -518 -4 -320 -1 -547 6 -655 24 -339 25 -473 6
-601 l-18 -119 -42 0 c-22 0 -146 9 -275 20 -129 10 -383 31 -565 45 -181 14
-409 32 -505 40 -96 8 -292 24 -435 35 -143 11 -399 31 -570 45 -170 14 -427
34 -570 45 -143 12 -337 27 -432 35 -94 8 -175 15 -180 15 -5 0 -7 47 -5 104
2 57 -4 214 -14 348 -24 320 -24 684 -1 792 9 44 15 82 12 84 -11 11 -25 -56
-40 -192 -16 -135 -16 -167 -1 -443 9 -164 21 -345 26 -403 11 -116 13 -234 4
-265 -5 -20 -7 -21 -177 -8 -114 9 -173 10 -175 3 -6 -16 -40 -11 -44 6 -2 10
0 60 3 113 3 53 2 191 -2 306 -21 577 -22 776 -5 889 9 61 18 111 20 113 2 2
8 -10 14 -26 l11 -31 89 0 c49 0 137 -3 196 -7 86 -5 106 -9 102 -20 -3 -8 -2
-12 3 -9 5 3 15 30 21 58 11 48 81 282 94 318 5 13 -25 15 -211 17 -119 2
-218 4 -220 6 -6 7 47 152 65 177 10 14 24 60 31 103 28 172 254 1049 307
1195 l16 42 56 -40 c32 -22 95 -77 142 -123 47 -45 98 -92 113 -105 l29 -21
-21 -34 c-26 -42 -27 -73 -2 -113 28 -47 80 -82 139 -95 29 -6 52 -16 52 -22
0 -7 -7 -52 -15 -102 -16 -98 -70 -510 -80 -616 l-7 -66 303 -5 c240 -4 312
-2 343 8 21 8 55 14 76 14 32 0 39 -4 49 -29 l12 -29 342 -4 342 -5 27 25 c26
24 29 24 80 12 29 -7 125 -15 213 -17 88 -2 336 -7 550 -12 215 -5 392 -7 393
-5 3 2 -316 624 -518 1009 -26 50 -71 136 -100 192 -94 180 -64 104 56 -143
64 -131 125 -259 135 -283 l19 -44 -37 -60 -38 -60 -125 2 c-69 1 -146 4 -171
7 l-46 6 24 137 c93 525 99 556 111 553 7 -1 -8 38 -33 88 -26 49 -47 90 -48
90 -1 0 -3 -10 -3 -22 -1 -13 -15 -88 -32 -168 -16 -80 -33 -170 -37 -200 -16
-131 -77 -455 -86 -461 -6 -3 -49 -9 -96 -12 -62 -5 -93 -3 -112 7 -14 8 -45
19 -67 25 -39 10 -43 15 -54 58 -40 160 -123 238 -297 277 -88 20 -390 46
-529 46 -88 0 -107 -3 -147 -24 l-45 -24 -30 56 c-17 31 -37 66 -46 77 -13 18
-12 24 7 58 20 35 20 39 5 48 -9 5 -37 29 -62 54 l-47 45 31 108 c74 254 102
311 174 346 30 15 29 16 -61 16 l-91 0 -11 -32 c-5 -18 -26 -96 -47 -173 -20
-77 -38 -143 -41 -147 -2 -5 -30 9 -61 29 -31 20 -64 36 -72 36 -22 -1 -196
132 -261 199 -34 35 -65 58 -78 58 -11 0 -21 3 -21 6 0 3 14 39 32 81 25 61
29 79 20 94 -19 30 -15 42 38 101 86 97 173 140 360 179 224 47 809 91 1435
108 398 11 476 11 860 1z m-2907 -146 c94 -4 172 -9 172 -11 0 -3 -9 -17 -21
-31 -18 -24 -19 -28 -5 -38 9 -6 16 -15 16 -20 0 -13 -101 -268 -110 -278 -5
-4 -108 63 -229 150 -228 164 -230 165 -214 223 6 24 6 24 112 18 58 -4 184
-10 279 -13z m-411 -535 c48 -39 141 -105 205 -147 64 -42 117 -83 117 -90 1
-7 -14 -63 -33 -126 -38 -122 -196 -754 -246 -978 -16 -76 -30 -154 -30 -174
0 -24 -8 -46 -25 -65 -13 -16 -32 -54 -41 -84 l-18 -55 -95 1 c-141 1 -389 13
-395 20 -6 6 5 47 265 1029 202 763 196 740 203 740 3 0 45 -32 93 -71z m5989
-7 c211 -39 228 -46 378 -168 79 -64 104 -89 94 -96 -41 -28 -245 -124 -255
-121 -19 7 -158 -52 -221 -92 -1 -1 2 -14 8 -29 9 -25 7 -27 -30 -42 -22 -9
-40 -19 -40 -24 0 -4 -18 -15 -40 -25 -22 -10 -40 -19 -40 -20 0 -2 7 -18 15
-38 l14 -35 -87 -92 -88 -92 -47 7 c-45 7 -53 4 -312 -129 -146 -75 -269 -136
-273 -136 -5 0 -25 100 -46 223 -36 208 -80 416 -159 755 -23 96 -30 145 -23
148 6 2 144 10 306 18 392 19 699 15 846 -12z m892 -659 c202 -188 282 -274
402 -434 66 -88 120 -165 120 -170 0 -11 -25 -11 -96 -3 l-52 7 -7 60 -6 60
-84 -7 c-114 -8 -222 8 -255 38 -19 18 -98 72 -117 81 -2 1 -73 428 -73 440 0
6 39 23 54 24 5 1 56 -43 114 -96z m-249 -20 c25 -124 107 -568 116 -633 l7
-45 -104 2 c-292 7 -763 25 -767 29 -3 2 4 11 15 18 10 8 30 23 44 34 l24 20
-17 73 c-24 104 -23 150 7 178 l23 22 39 -26 c33 -23 47 -26 94 -23 70 5 146
41 171 82 19 30 20 56 3 113 -5 18 2 25 44 47 28 14 73 42 100 62 48 36 167
104 182 104 4 0 13 -26 19 -57z m-7491 -1069 c50 -3 92 -9 92 -12 0 -14 -63
-228 -69 -234 -3 -3 -127 0 -276 8 -148 7 -430 20 -625 28 -195 9 -386 18
-425 21 -38 2 -180 9 -315 15 -135 6 -380 17 -545 25 -165 8 -356 17 -425 20
-69 3 -168 8 -220 10 -134 7 -708 33 -870 40 -216 9 -270 15 -270 31 0 8 3 14
8 15 4 0 799 11 1767 24 1660 21 1949 22 2173 9z m548 -496 c-3 -40 -9 -135
-12 -211 -7 -148 -11 -157 -64 -157 -14 0 -20 -5 -17 -13 3 -7 12 -40 22 -73
17 -60 17 -61 -15 -210 -17 -82 -33 -162 -36 -179 -10 -56 -15 -65 -44 -80
-79 -41 -147 11 -133 101 2 16 13 72 23 124 48 241 49 224 -22 441 -26 81 -38
136 -35 151 4 14 32 59 62 101 l56 77 111 0 110 0 -6 -72z m-5742 -241 c15
-11 17 -26 14 -95 -3 -87 -1 -92 48 -92 21 0 24 -4 24 -37 0 -64 -3 -65 -126
-54 -99 10 -111 13 -132 37 -27 31 -25 43 14 64 27 16 29 20 32 90 2 41 8 80
14 87 14 17 89 17 112 0z m2134 -143 c21 -14 22 -19 16 -102 -3 -48 -7 -92 -9
-99 -4 -12 26 -23 67 -23 15 0 29 -3 32 -8 5 -8 -9 -90 -17 -98 -3 -3 -65 -1
-138 5 -125 10 -136 12 -156 36 -36 40 -25 85 19 85 25 0 28 12 36 117 l7 88
35 12 c39 14 73 9 108 -13z m2727 -206 c24 -11 25 -14 25 -105 0 -52 -4 -102
-10 -112 -8 -16 -5 -20 22 -25 17 -3 44 -6 61 -6 29 0 29 0 23 -42 -4 -23 -8
-44 -10 -45 -2 -2 -74 0 -160 3 -150 7 -158 8 -173 30 -21 32 -8 63 28 71 34
6 35 11 44 136 5 66 11 89 23 97 23 13 96 12 127 -2z m-4703 -103 c79 -8 236
-24 351 -35 237 -23 519 -51 822 -81 116 -11 213 -24 217 -28 4 -4 32 -73 62
-155 l54 -148 -66 6 c-37 4 -143 16 -237 26 -93 11 -219 24 -280 30 -178 17
-165 9 -165 93 0 88 -10 177 -20 177 -4 0 -9 -52 -12 -115 -2 -63 -7 -117 -10
-120 -3 -3 -66 1 -139 10 -710 83 -811 94 -823 89 -6 -2 -17 0 -24 5 -20 12
85 261 110 261 10 0 82 -7 160 -15z m18759 -38 c78 -51 103 -158 96 -412 -5
-219 -21 -279 -94 -369 -57 -70 -107 -102 -146 -92 -39 9 -51 39 -32 76 38 74
84 303 100 500 5 68 -5 206 -21 288 -6 31 -5 32 28 32 20 0 50 -10 69 -23z
m-17101 -128 c74 -6 139 -16 144 -20 6 -5 2 -23 -11 -46 -16 -30 -59 -153 -79
-231 -3 -9 -19 -11 -61 -6 -32 4 -64 10 -72 14 -12 7 -121 277 -121 301 0 7
12 9 33 6 17 -3 93 -11 167 -18z m13599 -111 c-4 -57 -5 -105 -3 -106 1 -2 12
16 24 40 32 63 67 105 113 139 127 92 285 -41 349 -294 18 -71 20 -101 15
-251 -6 -183 -15 -234 -65 -339 -56 -119 -163 -207 -252 -207 -77 1 -169 65
-206 145 -13 27 -24 48 -24 45 -4 -27 -10 -99 -15 -162 l-7 -76 -81 -6 c-45
-3 -142 -8 -214 -11 l-133 -5 0 38 c0 21 9 142 19 268 11 126 25 306 32 399
l12 170 131 133 c128 130 132 133 206 157 113 36 106 41 99 -77z m-11097 -159
c29 -6 55 -13 57 -15 2 -2 11 -61 20 -131 l17 -128 89 -12 c50 -6 178 -23 285
-38 107 -15 240 -33 295 -41 55 -7 107 -14 115 -14 14 0 14 12 3 103 -6 56
-12 115 -12 131 l-1 28 55 -4 c30 -3 58 -7 61 -10 6 -6 11 -47 59 -413 14
-104 34 -257 45 -340 37 -278 49 -370 55 -440 4 -38 11 -108 16 -155 13 -120
12 -128 -14 -145 -22 -14 -35 -13 -140 5 -272 47 -351 61 -517 90 -96 17 -201
36 -234 41 -69 12 -111 31 -126 59 -6 11 -17 70 -26 132 -8 62 -32 241 -54
398 -21 157 -50 373 -65 480 -14 107 -32 241 -40 296 -18 120 -18 134 -5 134
5 0 33 -5 62 -11z m-551 -360 c5 -8 19 -57 33 -109 14 -52 53 -194 86 -315 33
-121 72 -263 86 -315 14 -52 32 -115 39 -140 7 -25 25 -88 39 -140 14 -52 57
-209 96 -349 39 -140 69 -255 68 -257 -11 -9 -152 -63 -156 -60 -4 5 -34 111
-178 636 -25 91 -56 203 -69 250 -141 508 -275 999 -275 1010 0 13 218 -185
231 -211z m15578 -472 c6 -8 8 -16 5 -20 -3 -3 -16 -55 -29 -115 -35 -164 -52
-189 -148 -213 -66 -16 -97 -2 -97 43 0 36 35 257 41 262 4 2 198 53 210 55 4
1 12 -5 18 -12z m-16398 -188 c99 -46 281 -243 264 -286 -2 -8 9 -38 25 -67
100 -176 139 -448 99 -679 -7 -39 -7 -63 0 -70 14 -17 -11 -136 -49 -235 -63
-163 -165 -286 -285 -343 -52 -25 -72 -29 -146 -29 -79 0 -92 3 -157 35 -132
67 -234 186 -310 365 -78 184 -108 360 -99 585 12 266 94 494 226 626 102 102
164 129 291 126 67 -2 97 -8 141 -28z m13438 -208 c11 -7 13 -28 8 -103 -8
-114 -30 -193 -65 -228 -25 -24 -39 -28 -157 -40 -72 -8 -186 -14 -255 -15
l-125 0 -3 44 c-3 33 34 315 42 322 1 2 436 25 496 27 25 1 51 -2 59 -7z
m-10192 -669 c13 -82 44 -157 98 -236 14 -21 24 -41 21 -43 -5 -5 -173 11
-441 42 -66 8 -169 19 -230 25 -60 5 -127 13 -149 16 l-38 6 43 44 c55 56 93
70 256 93 72 11 144 26 160 34 15 8 51 20 79 26 36 9 62 23 85 47 28 29 40 34
69 32 l34 -3 13 -83z m2460 28 c261 -34 1424 -181 1481 -187 28 -3 52 -9 52
-14 0 -4 -20 -65 -44 -136 -25 -70 -61 -199 -81 -285 -20 -87 -40 -158 -43
-158 -4 1 -110 16 -237 35 -126 18 -522 75 -880 126 -357 51 -654 96 -659 100
-4 4 28 74 72 156 82 152 114 237 127 331 8 62 -7 60 212 32z m3518 -30 c307
-32 595 -253 764 -586 60 -118 64 -132 41 -139 -18 -6 -18 -8 5 -73 26 -75 51
-189 60 -273 6 -51 8 -56 27 -51 20 5 20 3 16 -164 -5 -171 -16 -239 -60 -374
-112 -347 -372 -601 -677 -661 -101 -20 -289 -7 -386 26 -154 53 -271 128
-392 252 -358 365 -472 991 -267 1471 64 148 111 219 224 332 87 87 120 113
195 152 103 53 182 78 275 88 36 4 70 8 75 8 6 1 51 -3 100 -8z m2737 -960
c26 -151 174 -459 306 -634 l44 -59 -34 6 c-18 4 -105 16 -193 27 -138 17
-283 36 -504 66 l-54 7 7 221 c8 235 9 240 68 319 14 19 294 98 333 94 15 -2
21 -13 27 -47z"/>
<path d="M7079 6694 c-9 -3 -24 -24 -33 -47 l-16 -41 46 -47 45 -46 202 -6
202 -5 33 24 c18 14 48 56 67 95 l35 69 -262 0 c-145 0 -272 2 -283 4 -11 2
-27 2 -36 0z"/>
<path d="M14499 5387 c-21 -11 -25 -23 -33 -85 -13 -109 -27 -103 286 -118
160 -8 266 -10 272 -4 14 14 26 123 17 156 l-7 29 -190 11 c-104 7 -219 14
-255 17 -41 4 -75 1 -90 -6z"/>
<path d="M18620 4354 c-151 -22 -361 -51 -544 -76 -144 -19 -170 -25 -182 -43
-15 -23 -114 -509 -114 -561 0 -43 -14 -43 286 1 131 20 268 40 304 45 166 24
315 51 322 58 17 17 95 548 85 576 -7 19 -26 19 -157 0z"/>
<path d="M4820 4824 c0 -5 7 -61 15 -124 8 -63 32 -259 55 -434 29 -231 45
-328 58 -350 20 -35 23 -35 233 -66 445 -66 543 -79 547 -75 2 2 -1 43 -7 92
-39 301 -101 815 -101 836 0 29 1 28 -185 51 -66 8 -210 27 -320 41 -294 38
-295 39 -295 29z"/>
<path d="M3063 3728 c-14 -18 -25 -149 -14 -162 6 -7 35 -9 80 -6 53 4 76 10
91 26 29 28 19 46 -55 99 -77 55 -89 60 -102 43z"/>
<path d="M3453 3648 c-44 -49 -57 -89 -57 -178 0 -67 5 -96 22 -135 47 -103
103 -131 156 -76 56 58 70 172 36 284 -35 113 -106 160 -157 105z"/>
<path d="M3060 3284 c0 -8 10 -44 23 -80 31 -90 51 -94 121 -25 44 43 52 57
48 79 -3 15 -10 30 -16 34 -6 4 -48 8 -93 8 -69 0 -83 -3 -83 -16z"/>
<path d="M12432 2961 c-30 -21 -52 -43 -51 -47 6 -21 141 -94 173 -94 61 0 64
21 15 103 -28 46 -51 73 -64 74 -11 2 -44 -15 -73 -36z"/>
<path d="M12145 2613 c-21 -34 -30 -63 -33 -105 -3 -33 -1 -63 4 -68 12 -11
149 7 201 26 74 27 66 52 -42 129 -100 71 -97 70 -130 18z"/>
<path d="M13422 2069 c-3 -58 -47 -218 -79 -289 -90 -197 -240 -339 -416 -395
-62 -20 -99 -25 -182 -25 -172 0 -311 56 -454 184 l-66 60 50 -52 c94 -99 237
-178 359 -201 290 -54 556 92 701 384 51 102 98 270 92 330 l-4 40 -1 -36z"/>
<path d="M12151 2071 c-13 -8 -11 -22 13 -93 38 -110 51 -131 79 -122 29 8 67
44 67 61 0 8 -23 47 -50 88 -51 76 -73 89 -109 66z"/>
<path d="M12542 1664 c-51 -37 -92 -70 -92 -73 0 -3 32 -28 70 -54 65 -45 72
-47 97 -35 38 19 80 134 67 186 -14 57 -37 53 -142 -24z"/>
<path d="M13007 1668 c-26 -34 -83 -166 -75 -173 7 -7 115 39 146 62 l27 21
-21 58 c-12 34 -27 60 -36 62 -9 2 -27 -12 -41 -30z"/>
</g>
</svg>
