<?xml version="1.0" standalone="no"?>
<!DOCTYPE svg PUBLIC "-//W3C//DTD SVG 20010904//EN"
 "http://www.w3.org/TR/2001/REC-SVG-20010904/DTD/svg10.dtd">
<svg version="1.0" xmlns="http://www.w3.org/2000/svg"
 width="2000.000000pt" height="2002.000000pt" viewBox="0 0 2000.000000 2002.000000"
 preserveAspectRatio="xMidYMid meet">
<metadata>
Created by potrace 1.12, written by Peter Selinger 2001-2015
</metadata>
<g transform="translate(0.000000,2002.000000) scale(0.100000,-0.100000)"
fill="#000000" stroke="none">
<path d="M3707 17878 c-3 -7 -28 -69 -57 -138 -28 -69 -57 -138 -64 -155 -56
-124 -316 -764 -316 -778 0 -11 16 -25 46 -37 72 -31 86 -27 107 28 11 26 41
101 69 167 27 66 53 129 58 140 4 11 15 36 24 57 9 20 16 39 16 42 0 3 12 31
26 62 14 31 32 73 39 93 8 20 54 133 104 251 50 118 91 219 91 223 0 8 -76 43
-115 53 -14 3 -24 0 -28 -8z"/>
<path d="M3863 17748 c-9 -13 -18 -34 -193 -458 -56 -135 -108 -258 -115 -275
-43 -100 -95 -232 -95 -241 0 -6 32 -25 70 -43 56 -25 75 -29 90 -21 11 6 20
17 20 24 0 7 6 26 14 42 8 16 69 162 136 324 67 162 128 309 135 325 59 136
102 251 98 265 -3 10 -32 28 -72 44 -77 30 -76 30 -88 14z"/>
<path d="M4083 17718 c-6 -7 -14 -24 -18 -38 -7 -21 -106 -263 -134 -325 -5
-11 -53 -126 -106 -255 -54 -129 -104 -251 -112 -270 -8 -19 -18 -44 -23 -55
-4 -11 -18 -43 -30 -72 -13 -28 -20 -58 -17 -66 3 -7 27 -22 54 -32 26 -10
104 -42 173 -71 101 -42 619 -257 745 -309 53 -21 128 -53 215 -91 47 -20 150
-62 230 -94 179 -71 614 -250 814 -336 82 -35 153 -64 158 -64 4 0 50 -18 100
-41 103 -45 135 -58 343 -144 50 -21 108 -45 130 -55 22 -9 58 -23 80 -30 22
-7 45 -16 50 -20 6 -4 114 -50 240 -103 127 -52 303 -125 393 -162 139 -58
165 -66 176 -54 7 8 34 66 61 129 26 63 53 129 60 145 8 17 34 81 60 144 25
62 54 133 65 157 11 23 20 45 20 49 0 3 8 24 19 48 10 23 35 83 56 132 43 102
58 139 94 228 23 58 48 42 -316 192 -142 59 -271 112 -288 120 -16 7 -163 68
-325 135 -162 67 -308 128 -325 135 -16 7 -131 55 -255 105 -124 51 -253 105
-288 121 -35 16 -67 29 -71 29 -7 0 -85 32 -146 60 -43 20 -214 90 -219 90 -3
0 -30 11 -60 25 -57 26 -197 84 -461 191 -88 36 -175 72 -192 80 -18 8 -50 21
-70 28 -21 8 -110 44 -198 81 -88 37 -214 89 -280 116 -135 56 -138 57 -218
93 -32 14 -62 26 -68 26 -5 0 -22 6 -37 14 -46 23 -69 27 -79 14z"/>
<path d="M8010 16048 c-11 -18 -20 -38 -20 -45 0 -6 -13 -41 -30 -76 -16 -36
-30 -68 -30 -71 0 -4 -10 -28 -21 -54 -34 -76 -46 -104 -67 -157 -11 -27 -68
-165 -127 -305 -120 -286 -134 -325 -119 -340 6 -6 77 -17 160 -26 82 -8 176
-19 209 -23 83 -9 90 -6 110 47 9 26 28 72 42 102 13 30 28 64 33 75 4 11 15
36 24 57 9 20 16 39 16 42 0 6 13 37 66 154 13 29 24 57 24 62 0 6 4 18 9 28
9 18 30 65 54 122 51 121 67 161 67 169 0 14 -347 271 -365 271 -9 0 -24 -15
-35 -32z"/>
<path d="M8433 15778 c-5 -7 -29 -60 -54 -118 -24 -58 -51 -120 -61 -138 -10
-18 -18 -41 -18 -50 0 -10 -4 -22 -9 -27 -5 -6 -24 -46 -41 -90 -17 -44 -40
-99 -50 -122 -11 -24 -20 -45 -20 -48 0 -2 -11 -28 -24 -57 -30 -66 -66 -165
-66 -182 0 -15 8 -19 165 -85 406 -169 588 -242 603 -239 14 3 58 93 113 233
7 17 18 44 24 60 7 17 26 64 43 105 16 42 39 96 50 120 51 108 131 322 126
334 -3 8 -26 22 -52 31 -26 10 -92 39 -148 65 -56 26 -119 53 -140 60 -21 6
-120 45 -220 86 -99 41 -187 74 -196 74 -8 0 -20 -6 -25 -12z"/>
<path d="M13820 14224 c-30 -21 -118 -84 -195 -141 -158 -117 -140 -104 -337
-248 -86 -63 -148 -114 -148 -124 0 -15 59 -100 210 -303 36 -48 109 -148 164
-223 111 -152 116 -155 186 -102 24 17 73 52 109 77 37 25 75 53 86 62 19 16
144 107 363 266 57 41 106 81 109 88 7 19 3 25 -74 131 -38 50 -132 178 -210
285 -79 107 -157 211 -175 232 l-33 38 -55 -38z"/>
<path d="M14314 13502 c-34 -26 -103 -76 -153 -112 -51 -36 -104 -76 -119 -89
-15 -12 -63 -48 -107 -79 -70 -49 -109 -78 -151 -111 -6 -5 -34 -25 -62 -46
-29 -20 -57 -46 -63 -56 -7 -15 5 -54 57 -181 37 -90 72 -178 79 -197 14 -38
31 -52 54 -43 9 3 53 33 97 66 45 34 134 99 199 146 64 47 165 120 224 164 58
43 158 116 221 162 63 45 131 97 150 114 l35 30 -35 30 c-101 87 -326 250
-344 249 -12 0 -49 -21 -82 -47z"/>
<path d="M14767 13216 c-9 -7 -27 -21 -40 -30 -69 -50 -214 -159 -229 -171 -9
-7 -29 -22 -45 -32 -31 -20 -188 -135 -215 -158 -9 -7 -29 -22 -45 -32 -15
-10 -92 -66 -172 -125 -79 -60 -148 -108 -152 -108 -26 0 -2 -57 56 -136 36
-49 73 -100 83 -114 9 -13 59 -81 110 -150 118 -160 116 -158 187 -255 33 -46
107 -147 165 -226 58 -78 119 -162 135 -185 51 -72 386 -526 429 -582 74 -97
209 -278 346 -464 74 -101 139 -188 145 -195 5 -7 26 -35 45 -63 19 -28 91
-127 160 -220 69 -93 175 -237 235 -320 265 -364 376 -510 390 -510 18 0 135
82 370 257 71 54 270 199 385 283 166 120 190 140 190 154 0 7 -13 30 -28 52
-51 70 -215 296 -309 424 -51 69 -117 159 -147 200 -56 77 -680 927 -759 1035
-24 33 -84 114 -132 180 -49 66 -107 144 -129 173 -23 29 -59 79 -80 110 -22
31 -96 134 -165 227 -70 94 -133 180 -141 191 -8 12 -42 58 -75 102 -33 44
-85 115 -115 158 -30 42 -82 111 -115 153 -33 42 -106 139 -161 216 -140 192
-138 190 -177 161z"/>
<path d="M12750 11358 c-83 -23 -285 -72 -465 -113 -55 -13 -118 -28 -140 -35
-35 -10 -105 -28 -183 -47 -34 -8 -36 -22 -13 -110 11 -43 28 -112 37 -153 9
-41 22 -95 30 -120 7 -25 27 -103 44 -175 53 -225 62 -255 82 -266 10 -5 22
-8 26 -5 8 5 183 48 267 66 22 5 58 14 80 19 22 6 66 16 97 23 31 8 60 17 64
21 4 4 20 7 36 7 15 0 36 4 46 9 18 9 103 29 165 38 20 3 40 9 43 14 3 5 16 9
30 9 35 0 40 24 22 94 -9 34 -53 213 -98 399 l-83 337 -26 -1 c-14 -1 -42 -5
-61 -11z"/>
<path d="M12870 10484 c-69 -18 -137 -33 -152 -33 -15 -1 -29 -5 -32 -10 -3
-5 -20 -11 -38 -14 -53 -9 -131 -27 -153 -37 -11 -5 -33 -11 -50 -13 -27 -5
-96 -21 -200 -48 -22 -6 -53 -13 -68 -16 -17 -3 -32 -15 -37 -28 -12 -31 -12
-426 -1 -444 8 -12 40 -7 203 33 649 159 808 197 848 207 25 6 52 13 62 15 37
10 25 39 -88 230 -106 178 -118 194 -142 193 -15 -1 -83 -16 -152 -35z"/>
<path d="M13160 10044 c-52 -14 -129 -33 -170 -44 -41 -11 -214 -53 -385 -95
-170 -41 -326 -80 -345 -85 -19 -5 -51 -13 -70 -18 -24 -6 -36 -14 -38 -29 -3
-23 0 -38 163 -698 64 -258 145 -587 180 -730 173 -705 244 -993 335 -1360 54
-220 124 -503 155 -630 68 -279 142 -576 156 -629 13 -47 1 -47 249 13 47 11
101 25 120 30 19 5 53 14 75 20 22 6 90 22 150 36 61 14 124 29 140 34 17 5
64 17 105 26 41 10 85 21 98 26 13 5 31 9 41 9 10 0 41 7 67 14 27 8 62 18 77
21 50 10 52 -3 -39 365 -211 856 -355 1442 -440 1790 -35 146 -76 306 -90 355
-14 50 -28 104 -30 120 -3 17 -48 201 -99 410 -120 486 -233 947 -246 1005
-12 51 -25 70 -48 69 -9 -1 -59 -12 -111 -25z"/>
<path d="M17195 9708 c-39 -29 -80 -60 -92 -68 -64 -45 -229 -165 -233 -171
-3 -3 -54 -41 -115 -85 -60 -43 -131 -94 -156 -114 -26 -19 -72 -53 -103 -75
-76 -53 -79 -71 -26 -140 24 -31 50 -55 61 -55 10 0 71 40 136 88 65 49 179
133 253 187 74 54 172 126 217 159 45 34 121 89 168 124 47 35 85 67 85 71 0
20 -91 131 -108 131 -9 0 -49 -24 -87 -52z"/>
<path d="M17239 9460 c-209 -154 -365 -268 -594 -435 -71 -52 -131 -102 -133
-110 -5 -22 58 -105 80 -105 16 0 145 92 608 433 52 39 122 90 155 114 193
142 185 134 178 162 -5 20 -68 91 -81 91 -4 0 -100 -68 -213 -150z"/>
<path d="M6436 8999 c-14 -11 -33 -33 -41 -49 -14 -26 -50 -78 -176 -255 -85
-119 -390 -550 -464 -655 -38 -56 -92 -132 -120 -170 -27 -38 -104 -146 -170
-240 -158 -225 -341 -482 -401 -563 -27 -36 -64 -88 -82 -114 -19 -26 -63 -88
-98 -138 -36 -49 -88 -123 -117 -164 -29 -41 -63 -91 -77 -110 -14 -20 -61
-87 -105 -149 -117 -167 -147 -208 -280 -387 -50 -68 -55 -76 -165 -240 -44
-66 -102 -149 -128 -186 -66 -91 -191 -269 -309 -439 -186 -267 -238 -340
-300 -427 -89 -123 -86 -143 34 -225 106 -73 211 -147 643 -453 68 -48 722
-508 746 -525 12 -8 66 -47 120 -86 146 -104 316 -219 337 -227 20 -8 55 7 75
32 6 9 45 62 85 119 39 57 98 139 130 183 31 44 57 82 57 86 0 3 15 24 33 47
18 23 49 64 68 91 19 28 51 73 71 100 19 28 129 183 243 345 115 162 225 318
244 346 20 29 81 115 136 193 55 78 125 177 155 221 30 43 87 124 125 180 39
55 98 140 132 188 34 48 72 101 83 117 12 17 103 145 202 285 100 140 203 287
230 325 26 39 72 104 101 145 30 41 101 143 159 226 58 83 122 173 142 200 21
27 78 108 128 179 50 72 192 273 315 448 123 174 229 328 235 342 16 36 -1 65
-64 109 -29 20 -73 51 -98 69 -25 18 -74 54 -110 79 -135 94 -409 287 -500
352 -52 37 -156 110 -230 162 -349 246 -458 323 -522 369 -38 28 -114 82 -169
120 -56 39 -131 91 -167 118 -74 52 -97 57 -136 26z m165 -101 c53 -41 67 -63
54 -82 -6 -8 -24 -34 -41 -57 -16 -24 -48 -69 -69 -99 -21 -30 -56 -80 -77
-110 -21 -30 -47 -66 -57 -80 -11 -14 -87 -122 -171 -240 -83 -118 -165 -233
-181 -255 -16 -22 -53 -76 -84 -120 -56 -81 -279 -397 -333 -470 -16 -22 -131
-186 -257 -365 -125 -179 -238 -338 -251 -355 -25 -31 -183 -250 -250 -346
-40 -58 -180 -256 -270 -382 -28 -40 -96 -137 -152 -217 -55 -80 -115 -163
-131 -185 -39 -51 -247 -347 -345 -490 -41 -60 -93 -135 -115 -165 -22 -30
-70 -98 -106 -150 -143 -206 -181 -255 -203 -258 -30 -5 -111 56 -112 83 0 6
62 99 137 205 75 107 165 236 199 287 34 50 93 134 131 187 37 53 106 150 153
216 47 67 101 143 120 170 19 27 61 86 93 132 100 145 148 213 160 228 7 8 61
85 121 170 143 202 314 445 349 495 54 77 187 260 211 290 13 17 148 208 300
425 153 217 286 406 296 420 20 27 231 325 266 375 63 91 425 601 470 662 30
39 54 75 54 80 0 13 22 33 36 33 7 0 31 -15 55 -32z m279 -199 c28 -22 54 -47
57 -55 3 -7 -6 -27 -18 -43 -13 -16 -46 -62 -74 -101 -27 -39 -64 -90 -81
-113 -16 -23 -77 -110 -135 -192 -58 -83 -182 -258 -275 -390 -200 -282 -190
-267 -421 -595 -253 -359 -420 -595 -557 -788 -83 -117 -146 -207 -197 -283
-21 -32 -55 -77 -76 -102 -21 -24 -76 -100 -123 -167 -47 -67 -112 -160 -145
-206 -33 -45 -91 -128 -130 -184 -38 -55 -106 -151 -151 -213 -45 -62 -87
-124 -94 -137 -7 -14 -26 -41 -42 -60 -16 -19 -62 -83 -101 -142 -40 -59 -114
-167 -166 -240 -52 -73 -140 -197 -195 -275 -58 -83 -107 -143 -116 -143 -18
0 -140 86 -140 98 0 10 40 68 252 369 87 121 187 265 224 320 64 95 139 201
254 361 84 116 326 459 406 575 104 151 229 324 278 387 23 30 64 87 91 125
57 82 38 56 380 540 148 209 291 413 319 453 28 40 71 101 96 135 25 34 71 98
101 142 31 44 98 140 150 213 52 73 124 175 161 228 269 386 373 524 394 524
12 0 45 -18 74 -41z m263 -187 c32 -24 61 -50 64 -58 3 -7 -22 -51 -55 -96
-32 -46 -71 -101 -85 -123 -15 -22 -53 -76 -84 -121 -169 -236 -265 -370 -405
-569 -139 -198 -458 -650 -673 -955 -45 -63 -127 -180 -183 -260 -56 -80 -131
-185 -167 -235 -35 -49 -99 -139 -141 -200 -43 -60 -96 -136 -118 -167 -23
-32 -57 -80 -76 -108 -19 -27 -71 -99 -115 -158 -44 -60 -129 -178 -188 -263
-59 -85 -246 -350 -414 -589 -169 -239 -319 -453 -334 -476 -47 -68 -50 -69
-110 -28 -64 44 -99 74 -99 87 0 5 33 55 73 112 39 57 124 176 187 266 181
257 247 351 281 399 17 25 84 122 150 215 286 407 410 582 553 780 52 72 109
151 128 178 18 26 56 79 83 117 28 38 88 123 135 190 47 67 101 143 120 170
32 44 95 134 389 550 56 80 237 336 403 570 165 234 341 484 391 555 169 243
195 275 214 268 10 -4 44 -26 76 -51z m262 -183 c39 -28 74 -57 78 -65 5 -9
-12 -43 -55 -104 -132 -188 -366 -520 -445 -630 -130 -183 -164 -231 -349
-494 -96 -137 -190 -268 -207 -291 -18 -24 -58 -81 -89 -127 -32 -45 -85 -121
-118 -168 -34 -47 -73 -103 -89 -125 -54 -78 -91 -130 -120 -170 -16 -22 -59
-83 -95 -135 -37 -52 -132 -187 -212 -300 -287 -404 -391 -552 -489 -694 -55
-79 -121 -172 -147 -207 -60 -81 -337 -472 -578 -817 -47 -67 -91 -121 -98
-122 -22 0 -172 110 -172 126 0 16 63 108 294 434 88 124 183 259 212 300 29
41 61 86 72 100 10 14 63 90 117 170 54 80 123 178 154 219 31 41 70 94 86
117 146 210 536 758 562 790 18 23 33 45 33 50 0 5 15 28 33 51 44 56 122 167
385 543 75 107 180 255 232 327 52 73 115 162 140 198 25 36 59 85 76 108 17
23 91 128 164 232 74 105 155 219 180 255 26 36 113 158 194 273 93 131 154
207 164 207 10 0 49 -23 87 -51z m269 -190 c47 -34 86 -68 86 -75 0 -8 -77
-123 -172 -256 -94 -134 -214 -304 -267 -378 -52 -74 -214 -304 -360 -510
-146 -206 -285 -404 -310 -440 -25 -36 -98 -138 -161 -227 -63 -89 -160 -226
-215 -304 -55 -78 -140 -200 -190 -270 -114 -161 -419 -596 -549 -782 -104
-149 -296 -419 -381 -537 -27 -39 -90 -125 -138 -192 -48 -68 -95 -132 -103
-143 -8 -11 -62 -87 -120 -170 -57 -82 -111 -156 -117 -163 -11 -10 -29 -2
-93 42 -43 30 -85 60 -92 67 -27 23 -26 25 246 408 18 25 48 69 68 96 19 28
62 89 97 138 34 48 85 120 112 160 28 39 75 104 105 143 30 40 81 109 112 155
70 102 388 558 455 652 26 37 71 99 98 138 67 93 196 275 308 435 125 176 339
480 529 748 86 121 170 241 188 266 17 25 70 100 118 167 140 197 333 470 387
548 188 271 243 345 260 345 7 0 52 -28 99 -61z m241 -168 c118 -84 119 -85
112 -112 -4 -13 -30 -57 -59 -96 -29 -40 -79 -110 -111 -155 -32 -46 -98 -138
-145 -205 -48 -68 -132 -187 -187 -265 -55 -78 -152 -215 -215 -305 -63 -89
-149 -210 -190 -269 -41 -59 -95 -136 -120 -170 -134 -188 -279 -392 -310
-438 -20 -28 -61 -88 -92 -133 -32 -46 -62 -89 -68 -95 -9 -11 -166 -233 -218
-308 -9 -14 -52 -74 -96 -135 -44 -60 -121 -171 -171 -245 -50 -74 -148 -214
-216 -310 -106 -148 -226 -318 -477 -674 -24 -33 -70 -99 -102 -146 -32 -47
-79 -112 -104 -145 -26 -33 -68 -91 -94 -130 -104 -153 -108 -155 -179 -108
-85 58 -143 105 -143 118 0 7 48 80 107 164 221 311 254 357 298 416 24 33 59
81 77 107 18 26 56 79 83 117 28 39 88 124 135 191 47 66 112 158 144 203 33
45 82 116 109 157 51 75 178 258 312 445 57 80 406 574 526 744 14 20 43 61
65 92 21 30 68 97 104 148 171 243 299 423 432 611 232 328 435 615 533 755
50 72 107 151 125 178 19 26 41 47 50 47 8 0 47 -22 85 -49z m286 -204 c49
-34 89 -69 89 -77 0 -8 -45 -78 -100 -155 -54 -77 -127 -180 -161 -230 -34
-49 -82 -117 -106 -150 -55 -75 -343 -483 -418 -590 -30 -44 -111 -159 -179
-255 -69 -96 -185 -260 -258 -364 -207 -295 -235 -334 -368 -521 -69 -96 -172
-244 -230 -328 -58 -84 -163 -235 -235 -336 -170 -239 -189 -265 -261 -369
-33 -48 -112 -159 -174 -247 -63 -88 -130 -183 -149 -211 -20 -28 -67 -96
-106 -150 -38 -54 -79 -113 -90 -130 -11 -18 -45 -65 -75 -106 -30 -40 -77
-106 -105 -146 -27 -41 -57 -78 -66 -83 -13 -6 -38 5 -101 47 -110 75 -122 86
-113 114 4 12 55 86 113 164 59 78 123 166 143 196 20 30 108 155 195 278 88
122 179 251 204 287 25 36 85 120 133 188 49 67 134 189 190 270 100 144 464
663 663 942 7 11 60 85 116 165 56 80 148 210 205 290 56 80 119 168 138 195
19 28 68 97 109 155 41 58 89 125 106 150 17 25 70 100 118 167 119 167 224
315 324 458 243 344 312 441 322 447 16 11 29 4 127 -65z m189 -142 c0 -14
-55 -94 -325 -477 -17 -24 -104 -148 -195 -276 -91 -128 -179 -256 -196 -283
-17 -27 -41 -60 -52 -72 -11 -12 -36 -44 -54 -72 -19 -27 -88 -126 -154 -219
-65 -92 -142 -200 -169 -240 -28 -39 -68 -96 -90 -126 -21 -30 -52 -73 -67
-95 -15 -22 -121 -170 -234 -330 -113 -159 -245 -348 -294 -420 -49 -71 -116
-168 -149 -215 -34 -47 -69 -96 -78 -110 -9 -14 -65 -92 -123 -175 -59 -82
-157 -222 -219 -310 -62 -88 -121 -171 -131 -185 -19 -25 -74 -103 -198 -281
-37 -53 -112 -159 -166 -235 -55 -77 -117 -164 -139 -194 -44 -63 -73 -80 -82
-49 -5 14 3 33 22 60 56 78 165 235 197 284 19 28 58 83 87 122 30 40 91 126
137 190 545 772 714 1012 766 1088 34 50 78 114 99 143 20 28 52 73 70 100 19
26 82 115 140 197 58 83 141 200 184 260 42 61 127 180 187 265 140 198 247
350 480 680 189 269 278 394 353 499 23 32 95 135 161 229 181 257 184 261
210 262 13 0 22 -6 22 -15z"/>
<path d="M14195 5909 c-16 -4 -97 -24 -180 -44 -149 -35 -203 -49 -260 -65
-16 -5 -46 -11 -65 -15 -19 -4 -48 -10 -65 -15 -60 -17 -112 -31 -213 -55
-164 -39 -180 -44 -186 -60 -3 -9 2 -47 11 -85 16 -66 18 -70 45 -70 33 0 212
41 353 80 17 4 173 43 349 86 l318 78 -5 45 c-3 25 -12 64 -19 86 -14 43 -30
50 -83 34z"/>
<path d="M14175 5674 c-191 -50 -725 -182 -838 -209 -125 -29 -131 -34 -112
-104 8 -30 18 -58 23 -63 6 -6 122 18 298 62 159 39 399 98 534 131 344 85
314 72 307 130 -8 67 -22 89 -55 88 -15 -1 -85 -17 -157 -35z"/>
<path d="M3206 4467 c-16 -23 -122 -172 -235 -332 -263 -373 -252 -356 -249
-374 3 -13 76 -67 358 -266 52 -37 151 -107 220 -156 69 -49 204 -145 300
-213 96 -68 330 -233 520 -366 190 -134 401 -283 470 -332 69 -48 133 -88 143
-88 10 0 32 22 52 53 19 28 51 75 71 102 19 28 60 86 91 130 31 44 87 121 123
170 106 143 186 259 193 277 9 26 -3 37 -188 163 -153 105 -343 238 -597 419
-84 60 -175 125 -203 144 -393 277 -765 539 -785 554 -88 68 -226 158 -239
158 -9 -1 -29 -20 -45 -43z"/>
<path d="M2441 3763 c-55 -73 -63 -106 -29 -124 23 -12 302 -208 403 -283 33
-24 96 -68 140 -97 44 -29 94 -65 110 -79 17 -15 80 -61 140 -102 61 -41 133
-90 160 -109 75 -53 288 -204 393 -278 51 -36 148 -104 215 -151 68 -47 201
-141 297 -209 420 -299 481 -341 495 -341 20 0 108 133 103 156 -4 21 -76 79
-168 134 -53 32 -194 130 -445 310 -16 12 -93 66 -170 120 -77 54 -156 110
-175 124 -32 23 -261 185 -545 386 -59 41 -139 98 -178 125 -157 109 -474 337
-592 425 -43 33 -85 60 -92 60 -6 0 -35 -30 -62 -67z"/>
</g>
</svg>
