<?xml version="1.0" standalone="no"?>
<!DOCTYPE svg PUBLIC "-//W3C//DTD SVG 20010904//EN"
 "http://www.w3.org/TR/2001/REC-SVG-20010904/DTD/svg10.dtd">
<svg version="1.0" xmlns="http://www.w3.org/2000/svg"
 width="2000.000000pt" height="1720.000000pt" viewBox="0 0 2000.000000 1720.000000"
 preserveAspectRatio="xMidYMid meet">
<metadata>
Created by potrace 1.12, written by Peter Selinger 2001-2015
</metadata>
<g transform="translate(0.000000,1720.000000) scale(0.100000,-0.100000)"
fill="#000000" stroke="none">
<path d="M16310 15729 c-378 -43 -836 -202 -1088 -376 -453 -314 -812 -729
-1052 -1218 -94 -192 -147 -336 -230 -632 l-63 -221 18 -54 c36 -112 150 -198
263 -198 111 0 151 38 227 220 31 74 84 198 117 275 309 724 793 1242 1382
1480 287 115 642 159 906 111 394 -71 723 -303 883 -621 168 -336 167 -817 -3
-1246 -154 -389 -457 -744 -876 -1027 -249 -167 -637 -351 -849 -401 -162 -39
-301 -124 -345 -212 -41 -80 -13 -201 60 -262 37 -31 117 -57 176 -57 23 0 88
9 145 21 631 125 1191 410 1626 826 241 231 372 389 460 553 40 75 164 374
202 488 142 421 167 857 70 1227 -43 166 -152 402 -260 565 -78 118 -299 342
-419 426 -265 185 -527 288 -838 329 -122 16 -387 18 -512 4z"/>
<path d="M6120 14220 c-365 -38 -757 -202 -1091 -455 -180 -137 -430 -384
-515 -509 -147 -216 -303 -538 -387 -801 -151 -471 -188 -897 -121 -1404 8
-64 19 -151 24 -195 15 -129 76 -202 192 -233 93 -24 172 -11 232 39 71 58 70
54 71 433 2 521 37 792 147 1125 282 861 992 1439 1713 1396 618 -36 1037
-479 1146 -1211 17 -116 15 -389 -5 -514 -78 -492 -308 -941 -718 -1398 -106
-119 -218 -223 -305 -287 -123 -88 -216 -231 -216 -329 0 -62 20 -105 70 -152
78 -74 182 -81 299 -20 219 114 628 475 834 735 178 225 338 494 439 739 124
303 167 434 191 591 15 100 12 545 -5 690 -60 514 -252 944 -552 1237 -292
286 -583 437 -968 503 -132 23 -358 32 -475 20z"/>
<path d="M3535 5663 c-422 -54 -837 -235 -1236 -540 -366 -279 -740 -865 -903
-1418 -83 -280 -110 -459 -128 -826 -14 -284 -11 -304 53 -367 79 -80 203
-112 293 -78 52 20 111 81 120 122 3 16 24 137 46 269 85 502 170 783 329
1090 251 485 607 833 1044 1020 220 94 382 128 602 128 579 0 1014 -337 1160
-897 151 -582 -5 -1204 -439 -1750 -222 -280 -624 -627 -876 -756 -97 -50
-123 -68 -187 -131 -129 -127 -137 -264 -22 -362 27 -24 60 -40 95 -48 81 -18
154 1 331 86 375 180 691 408 969 698 195 203 329 385 498 681 138 241 176
348 225 647 52 317 64 530 41 760 -48 473 -214 837 -534 1167 -248 256 -603
434 -991 497 -87 14 -403 19 -490 8z"/>
</g>
</svg>
